M48
; DRILL file {KiCad 9.0.7} date 2026-01-28T05:44:09+0100
; FORMAT={-:-/ absolute / metric / decimal}
; #@! TF.CreationDate,2026-01-28T05:44:09+01:00
; #@! TF.GenerationSoftware,Kicad,Pcbnew,9.0.7
; #@! TF.FileFunction,Plated,1,2,PTH
FMAT,2
METRIC
; #@! TA.AperFunction,Plated,PTH,ComponentDrill
T1C1.000
%
G90
G05
T1
X56.25Y-76.42
X56.25Y-78.96
X56.25Y-81.5
X56.25Y-84.04
X56.25Y-86.58
X56.25Y-89.12
X56.25Y-91.66
X56.25Y-94.2
X56.25Y-96.74
X64.47Y-80.34
X64.47Y-82.88
X64.47Y-85.42
X64.47Y-87.96
X64.47Y-90.5
X64.47Y-93.04
X64.47Y-95.58
X64.47Y-98.12
X87.75Y-80.34
X87.75Y-82.88
X87.75Y-85.42
X87.75Y-87.96
X87.75Y-90.5
X87.75Y-93.04
X87.75Y-95.58
X87.75Y-98.12
X89.16Y-54.5
X91.7Y-54.5
X94.24Y-54.5
M30
