%TF.GenerationSoftware,KiCad,Pcbnew,9.0.7*%
%TF.CreationDate,2026-01-28T05:43:59+01:00*%
%TF.ProjectId,garage_controller_esp8266,67617261-6765-45f6-936f-6e74726f6c6c,v01*%
%TF.SameCoordinates,Original*%
%TF.FileFunction,Paste,Top*%
%TF.FilePolarity,Positive*%
%FSLAX46Y46*%
G04 Gerber Fmt 4.6, Leading zero omitted, Abs format (unit mm)*
G04 Created by KiCad (PCBNEW 9.0.7) date 2026-01-28 05:43:59*
%MOMM*%
%LPD*%
G01*
G04 APERTURE LIST*
G04 Aperture macros list*
%AMRoundRect*
0 Rectangle with rounded corners*
0 $1 Rounding radius*
0 $2 $3 $4 $5 $6 $7 $8 $9 X,Y pos of 4 corners*
0 Add a 4 corners polygon primitive as box body*
4,1,4,$2,$3,$4,$5,$6,$7,$8,$9,$2,$3,0*
0 Add four circle primitives for the rounded corners*
1,1,$1+$1,$2,$3*
1,1,$1+$1,$4,$5*
1,1,$1+$1,$6,$7*
1,1,$1+$1,$8,$9*
0 Add four rect primitives between the rounded corners*
20,1,$1+$1,$2,$3,$4,$5,0*
20,1,$1+$1,$4,$5,$6,$7,0*
20,1,$1+$1,$6,$7,$8,$9,0*
20,1,$1+$1,$8,$9,$2,$3,0*%
G04 Aperture macros list end*
%ADD10RoundRect,0.250000X-0.475000X0.337500X-0.475000X-0.337500X0.475000X-0.337500X0.475000X0.337500X0*%
%ADD11RoundRect,0.250000X0.450000X-0.350000X0.450000X0.350000X-0.450000X0.350000X-0.450000X-0.350000X0*%
%ADD12RoundRect,0.250000X-0.450000X0.350000X-0.450000X-0.350000X0.450000X-0.350000X0.450000X0.350000X0*%
%ADD13RoundRect,0.125000X-0.125000X0.487500X-0.125000X-0.487500X0.125000X-0.487500X0.125000X0.487500X0*%
%ADD14RoundRect,0.250000X1.000000X-1.950000X1.000000X1.950000X-1.000000X1.950000X-1.000000X-1.950000X0*%
%ADD15RoundRect,0.150000X0.875000X0.150000X-0.875000X0.150000X-0.875000X-0.150000X0.875000X-0.150000X0*%
%ADD16RoundRect,0.250000X-0.350000X-0.450000X0.350000X-0.450000X0.350000X0.450000X-0.350000X0.450000X0*%
%ADD17RoundRect,0.250000X0.350000X0.450000X-0.350000X0.450000X-0.350000X-0.450000X0.350000X-0.450000X0*%
%ADD18RoundRect,0.250000X-0.400000X-0.625000X0.400000X-0.625000X0.400000X0.625000X-0.400000X0.625000X0*%
%ADD19RoundRect,0.150000X-0.150000X0.587500X-0.150000X-0.587500X0.150000X-0.587500X0.150000X0.587500X0*%
%ADD20RoundRect,0.150000X0.150000X-0.587500X0.150000X0.587500X-0.150000X0.587500X-0.150000X-0.587500X0*%
%ADD21RoundRect,0.150000X-0.587500X-0.150000X0.587500X-0.150000X0.587500X0.150000X-0.587500X0.150000X0*%
%ADD22RoundRect,0.225000X0.225000X0.375000X-0.225000X0.375000X-0.225000X-0.375000X0.225000X-0.375000X0*%
%ADD23RoundRect,0.250000X-0.450000X0.325000X-0.450000X-0.325000X0.450000X-0.325000X0.450000X0.325000X0*%
%ADD24RoundRect,0.250000X0.337500X0.475000X-0.337500X0.475000X-0.337500X-0.475000X0.337500X-0.475000X0*%
G04 APERTURE END LIST*
D10*
%TO.C,C1*%
X120250000Y-86035000D03*
X120250000Y-83960000D03*
%TD*%
D11*
%TO.C,R6*%
X125000000Y-84000000D03*
X125000000Y-86000000D03*
%TD*%
D10*
%TO.C,C4*%
X83800000Y-119600000D03*
X83800000Y-121675000D03*
%TD*%
%TO.C,C7*%
X63400000Y-124935000D03*
X63400000Y-127010000D03*
%TD*%
%TO.C,C6*%
X76900000Y-120025000D03*
X76900000Y-122100000D03*
%TD*%
D12*
%TO.C,R10*%
X77000000Y-118000000D03*
X77000000Y-116000000D03*
%TD*%
%TO.C,R9*%
X83800000Y-115600000D03*
X83800000Y-117600000D03*
%TD*%
%TO.C,R12*%
X63400000Y-120910000D03*
X63400000Y-122910000D03*
%TD*%
D13*
%TO.C,D4*%
X61300000Y-123910000D03*
X60000000Y-123910000D03*
X60650000Y-125785000D03*
%TD*%
D14*
%TO.C,C3*%
X97500000Y-93210000D03*
X97500000Y-101610000D03*
%TD*%
D15*
%TO.C,U2*%
X117500000Y-95710000D03*
X117500000Y-94440000D03*
X117500000Y-93170000D03*
X117500000Y-91900000D03*
X117500000Y-90630000D03*
X117500000Y-89360000D03*
X117500000Y-88090000D03*
X117500000Y-86820000D03*
X117500000Y-85550000D03*
X117500000Y-84280000D03*
X117500000Y-83010000D03*
X117500000Y-81740000D03*
X117500000Y-80470000D03*
X117500000Y-79200000D03*
X108200000Y-79200000D03*
X108200000Y-80470000D03*
X108200000Y-81740000D03*
X108200000Y-83010000D03*
X108200000Y-84280000D03*
X108200000Y-85550000D03*
X108200000Y-86820000D03*
X108200000Y-88090000D03*
X108200000Y-89360000D03*
X108200000Y-90630000D03*
X108200000Y-91900000D03*
X108200000Y-93170000D03*
X108200000Y-94440000D03*
X108200000Y-95710000D03*
%TD*%
D12*
%TO.C,R3*%
X86000000Y-117600000D03*
X86000000Y-115600000D03*
%TD*%
%TO.C,R2*%
X79500000Y-118000000D03*
X79500000Y-116000000D03*
%TD*%
%TO.C,R1*%
X61100000Y-120010000D03*
X61100000Y-122010000D03*
%TD*%
%TO.C,R17*%
X127200000Y-91300000D03*
X127200000Y-93300000D03*
%TD*%
%TO.C,R14*%
X133600000Y-104200000D03*
X133600000Y-106200000D03*
%TD*%
D16*
%TO.C,R19*%
X128400000Y-108400000D03*
X130400000Y-108400000D03*
%TD*%
D12*
%TO.C,R20*%
X130200000Y-86900000D03*
X130200000Y-88900000D03*
%TD*%
D17*
%TO.C,R15*%
X123300000Y-101700000D03*
X121300000Y-101700000D03*
%TD*%
D16*
%TO.C,R18*%
X129200000Y-95900000D03*
X131200000Y-95900000D03*
%TD*%
D17*
%TO.C,R16*%
X131400000Y-101600000D03*
X129400000Y-101600000D03*
%TD*%
%TO.C,R11*%
X119600000Y-99000000D03*
X117600000Y-99000000D03*
%TD*%
D12*
%TO.C,R13*%
X114800000Y-100800000D03*
X114800000Y-102800000D03*
%TD*%
D16*
%TO.C,R4*%
X55500000Y-72460000D03*
X57500000Y-72460000D03*
%TD*%
D11*
%TO.C,R8*%
X122600000Y-86000000D03*
X122600000Y-84000000D03*
%TD*%
D12*
%TO.C,R7*%
X120250000Y-87960000D03*
X120250000Y-89960000D03*
%TD*%
D18*
%TO.C,R5*%
X86650000Y-109460000D03*
X89750000Y-109460000D03*
%TD*%
D19*
%TO.C,Q2*%
X131450000Y-104225000D03*
X129550000Y-104225000D03*
X130500000Y-106100000D03*
%TD*%
D20*
%TO.C,Q3*%
X129250000Y-93375000D03*
X131150000Y-93375000D03*
X130200000Y-91500000D03*
%TD*%
D21*
%TO.C,Q1*%
X117325000Y-100750000D03*
X117325000Y-102650000D03*
X119200000Y-101700000D03*
%TD*%
D22*
%TO.C,D2*%
X62200000Y-94300000D03*
X58900000Y-94300000D03*
%TD*%
D23*
%TO.C,D1*%
X93750000Y-107410000D03*
X93750000Y-109460000D03*
%TD*%
D10*
%TO.C,C2*%
X90750000Y-95960000D03*
X90750000Y-98035000D03*
%TD*%
D24*
%TO.C,C5*%
X61675000Y-97800000D03*
X59600000Y-97800000D03*
%TD*%
D13*
%TO.C,D3*%
X81100000Y-120100000D03*
X79800000Y-120100000D03*
X80450000Y-121975000D03*
%TD*%
M02*
