%TF.GenerationSoftware,KiCad,Pcbnew,9.0.7*%
%TF.CreationDate,2026-01-28T05:43:59+01:00*%
%TF.ProjectId,garage_controller_esp8266,67617261-6765-45f6-936f-6e74726f6c6c,v01*%
%TF.SameCoordinates,Original*%
%TF.FileFunction,Legend,Top*%
%TF.FilePolarity,Positive*%
%FSLAX46Y46*%
G04 Gerber Fmt 4.6, Leading zero omitted, Abs format (unit mm)*
G04 Created by KiCad (PCBNEW 9.0.7) date 2026-01-28 05:43:59*
%MOMM*%
%LPD*%
G01*
G04 APERTURE LIST*
%ADD10C,0.300000*%
%ADD11C,0.150000*%
%ADD12C,0.100000*%
%ADD13C,0.120000*%
G04 APERTURE END LIST*
D10*
X51411653Y-79438643D02*
X51340225Y-79510072D01*
X51340225Y-79510072D02*
X51125939Y-79581500D01*
X51125939Y-79581500D02*
X50983082Y-79581500D01*
X50983082Y-79581500D02*
X50768796Y-79510072D01*
X50768796Y-79510072D02*
X50625939Y-79367214D01*
X50625939Y-79367214D02*
X50554510Y-79224357D01*
X50554510Y-79224357D02*
X50483082Y-78938643D01*
X50483082Y-78938643D02*
X50483082Y-78724357D01*
X50483082Y-78724357D02*
X50554510Y-78438643D01*
X50554510Y-78438643D02*
X50625939Y-78295786D01*
X50625939Y-78295786D02*
X50768796Y-78152929D01*
X50768796Y-78152929D02*
X50983082Y-78081500D01*
X50983082Y-78081500D02*
X51125939Y-78081500D01*
X51125939Y-78081500D02*
X51340225Y-78152929D01*
X51340225Y-78152929D02*
X51411653Y-78224357D01*
X52340225Y-78081500D02*
X52625939Y-78081500D01*
X52625939Y-78081500D02*
X52768796Y-78152929D01*
X52768796Y-78152929D02*
X52911653Y-78295786D01*
X52911653Y-78295786D02*
X52983082Y-78581500D01*
X52983082Y-78581500D02*
X52983082Y-79081500D01*
X52983082Y-79081500D02*
X52911653Y-79367214D01*
X52911653Y-79367214D02*
X52768796Y-79510072D01*
X52768796Y-79510072D02*
X52625939Y-79581500D01*
X52625939Y-79581500D02*
X52340225Y-79581500D01*
X52340225Y-79581500D02*
X52197368Y-79510072D01*
X52197368Y-79510072D02*
X52054510Y-79367214D01*
X52054510Y-79367214D02*
X51983082Y-79081500D01*
X51983082Y-79081500D02*
X51983082Y-78581500D01*
X51983082Y-78581500D02*
X52054510Y-78295786D01*
X52054510Y-78295786D02*
X52197368Y-78152929D01*
X52197368Y-78152929D02*
X52340225Y-78081500D01*
X53625939Y-79581500D02*
X53625939Y-78081500D01*
X53625939Y-78081500D02*
X54125939Y-79152929D01*
X54125939Y-79152929D02*
X54625939Y-78081500D01*
X54625939Y-78081500D02*
X54625939Y-79581500D01*
X50554510Y-80496416D02*
X50554510Y-81710702D01*
X50554510Y-81710702D02*
X50625939Y-81853559D01*
X50625939Y-81853559D02*
X50697368Y-81924988D01*
X50697368Y-81924988D02*
X50840225Y-81996416D01*
X50840225Y-81996416D02*
X51125939Y-81996416D01*
X51125939Y-81996416D02*
X51268796Y-81924988D01*
X51268796Y-81924988D02*
X51340225Y-81853559D01*
X51340225Y-81853559D02*
X51411653Y-81710702D01*
X51411653Y-81710702D02*
X51411653Y-80496416D01*
X52125939Y-81996416D02*
X52125939Y-80496416D01*
X52125939Y-80496416D02*
X52697368Y-80496416D01*
X52697368Y-80496416D02*
X52840225Y-80567845D01*
X52840225Y-80567845D02*
X52911654Y-80639273D01*
X52911654Y-80639273D02*
X52983082Y-80782130D01*
X52983082Y-80782130D02*
X52983082Y-80996416D01*
X52983082Y-80996416D02*
X52911654Y-81139273D01*
X52911654Y-81139273D02*
X52840225Y-81210702D01*
X52840225Y-81210702D02*
X52697368Y-81282130D01*
X52697368Y-81282130D02*
X52125939Y-81282130D01*
X50483082Y-84339904D02*
X50697368Y-84411332D01*
X50697368Y-84411332D02*
X51054510Y-84411332D01*
X51054510Y-84411332D02*
X51197368Y-84339904D01*
X51197368Y-84339904D02*
X51268796Y-84268475D01*
X51268796Y-84268475D02*
X51340225Y-84125618D01*
X51340225Y-84125618D02*
X51340225Y-83982761D01*
X51340225Y-83982761D02*
X51268796Y-83839904D01*
X51268796Y-83839904D02*
X51197368Y-83768475D01*
X51197368Y-83768475D02*
X51054510Y-83697046D01*
X51054510Y-83697046D02*
X50768796Y-83625618D01*
X50768796Y-83625618D02*
X50625939Y-83554189D01*
X50625939Y-83554189D02*
X50554510Y-83482761D01*
X50554510Y-83482761D02*
X50483082Y-83339904D01*
X50483082Y-83339904D02*
X50483082Y-83197046D01*
X50483082Y-83197046D02*
X50554510Y-83054189D01*
X50554510Y-83054189D02*
X50625939Y-82982761D01*
X50625939Y-82982761D02*
X50768796Y-82911332D01*
X50768796Y-82911332D02*
X51125939Y-82911332D01*
X51125939Y-82911332D02*
X51340225Y-82982761D01*
X51768796Y-82911332D02*
X52625939Y-82911332D01*
X52197367Y-84411332D02*
X52197367Y-82911332D01*
X53125938Y-84411332D02*
X53125938Y-82911332D01*
X53125938Y-82911332D02*
X53697367Y-82911332D01*
X53697367Y-82911332D02*
X53840224Y-82982761D01*
X53840224Y-82982761D02*
X53911653Y-83054189D01*
X53911653Y-83054189D02*
X53983081Y-83197046D01*
X53983081Y-83197046D02*
X53983081Y-83411332D01*
X53983081Y-83411332D02*
X53911653Y-83554189D01*
X53911653Y-83554189D02*
X53840224Y-83625618D01*
X53840224Y-83625618D02*
X53697367Y-83697046D01*
X53697367Y-83697046D02*
X53125938Y-83697046D01*
X50554510Y-86826248D02*
X50554510Y-85326248D01*
X50554510Y-85326248D02*
X50911653Y-85326248D01*
X50911653Y-85326248D02*
X51125939Y-85397677D01*
X51125939Y-85397677D02*
X51268796Y-85540534D01*
X51268796Y-85540534D02*
X51340225Y-85683391D01*
X51340225Y-85683391D02*
X51411653Y-85969105D01*
X51411653Y-85969105D02*
X51411653Y-86183391D01*
X51411653Y-86183391D02*
X51340225Y-86469105D01*
X51340225Y-86469105D02*
X51268796Y-86611962D01*
X51268796Y-86611962D02*
X51125939Y-86754820D01*
X51125939Y-86754820D02*
X50911653Y-86826248D01*
X50911653Y-86826248D02*
X50554510Y-86826248D01*
X51911653Y-85326248D02*
X52268796Y-86826248D01*
X52268796Y-86826248D02*
X52554510Y-85754820D01*
X52554510Y-85754820D02*
X52840225Y-86826248D01*
X52840225Y-86826248D02*
X53197368Y-85326248D01*
X53768796Y-86826248D02*
X53768796Y-85326248D01*
X53768796Y-85326248D02*
X54625939Y-86826248D01*
X54625939Y-86826248D02*
X54625939Y-85326248D01*
X50340225Y-87741164D02*
X51197368Y-87741164D01*
X50768796Y-89241164D02*
X50768796Y-87741164D01*
X51983082Y-87741164D02*
X52268796Y-87741164D01*
X52268796Y-87741164D02*
X52411653Y-87812593D01*
X52411653Y-87812593D02*
X52554510Y-87955450D01*
X52554510Y-87955450D02*
X52625939Y-88241164D01*
X52625939Y-88241164D02*
X52625939Y-88741164D01*
X52625939Y-88741164D02*
X52554510Y-89026878D01*
X52554510Y-89026878D02*
X52411653Y-89169736D01*
X52411653Y-89169736D02*
X52268796Y-89241164D01*
X52268796Y-89241164D02*
X51983082Y-89241164D01*
X51983082Y-89241164D02*
X51840225Y-89169736D01*
X51840225Y-89169736D02*
X51697367Y-89026878D01*
X51697367Y-89026878D02*
X51625939Y-88741164D01*
X51625939Y-88741164D02*
X51625939Y-88241164D01*
X51625939Y-88241164D02*
X51697367Y-87955450D01*
X51697367Y-87955450D02*
X51840225Y-87812593D01*
X51840225Y-87812593D02*
X51983082Y-87741164D01*
X53268796Y-89241164D02*
X53268796Y-87741164D01*
X53268796Y-87741164D02*
X53840225Y-87741164D01*
X53840225Y-87741164D02*
X53983082Y-87812593D01*
X53983082Y-87812593D02*
X54054511Y-87884021D01*
X54054511Y-87884021D02*
X54125939Y-88026878D01*
X54125939Y-88026878D02*
X54125939Y-88241164D01*
X54125939Y-88241164D02*
X54054511Y-88384021D01*
X54054511Y-88384021D02*
X53983082Y-88455450D01*
X53983082Y-88455450D02*
X53840225Y-88526878D01*
X53840225Y-88526878D02*
X53268796Y-88526878D01*
X50554510Y-91656080D02*
X50554510Y-90156080D01*
X50554510Y-90156080D02*
X51054510Y-91227509D01*
X51054510Y-91227509D02*
X51554510Y-90156080D01*
X51554510Y-90156080D02*
X51554510Y-91656080D01*
X52268796Y-91656080D02*
X52268796Y-90156080D01*
X52983082Y-91656080D02*
X52983082Y-90156080D01*
X52983082Y-90156080D02*
X53340225Y-90156080D01*
X53340225Y-90156080D02*
X53554511Y-90227509D01*
X53554511Y-90227509D02*
X53697368Y-90370366D01*
X53697368Y-90370366D02*
X53768797Y-90513223D01*
X53768797Y-90513223D02*
X53840225Y-90798937D01*
X53840225Y-90798937D02*
X53840225Y-91013223D01*
X53840225Y-91013223D02*
X53768797Y-91298937D01*
X53768797Y-91298937D02*
X53697368Y-91441794D01*
X53697368Y-91441794D02*
X53554511Y-91584652D01*
X53554511Y-91584652D02*
X53340225Y-91656080D01*
X53340225Y-91656080D02*
X52983082Y-91656080D01*
X51054510Y-93285282D02*
X51268796Y-93356710D01*
X51268796Y-93356710D02*
X51340225Y-93428139D01*
X51340225Y-93428139D02*
X51411653Y-93570996D01*
X51411653Y-93570996D02*
X51411653Y-93785282D01*
X51411653Y-93785282D02*
X51340225Y-93928139D01*
X51340225Y-93928139D02*
X51268796Y-93999568D01*
X51268796Y-93999568D02*
X51125939Y-94070996D01*
X51125939Y-94070996D02*
X50554510Y-94070996D01*
X50554510Y-94070996D02*
X50554510Y-92570996D01*
X50554510Y-92570996D02*
X51054510Y-92570996D01*
X51054510Y-92570996D02*
X51197368Y-92642425D01*
X51197368Y-92642425D02*
X51268796Y-92713853D01*
X51268796Y-92713853D02*
X51340225Y-92856710D01*
X51340225Y-92856710D02*
X51340225Y-92999568D01*
X51340225Y-92999568D02*
X51268796Y-93142425D01*
X51268796Y-93142425D02*
X51197368Y-93213853D01*
X51197368Y-93213853D02*
X51054510Y-93285282D01*
X51054510Y-93285282D02*
X50554510Y-93285282D01*
X52340225Y-92570996D02*
X52625939Y-92570996D01*
X52625939Y-92570996D02*
X52768796Y-92642425D01*
X52768796Y-92642425D02*
X52911653Y-92785282D01*
X52911653Y-92785282D02*
X52983082Y-93070996D01*
X52983082Y-93070996D02*
X52983082Y-93570996D01*
X52983082Y-93570996D02*
X52911653Y-93856710D01*
X52911653Y-93856710D02*
X52768796Y-93999568D01*
X52768796Y-93999568D02*
X52625939Y-94070996D01*
X52625939Y-94070996D02*
X52340225Y-94070996D01*
X52340225Y-94070996D02*
X52197368Y-93999568D01*
X52197368Y-93999568D02*
X52054510Y-93856710D01*
X52054510Y-93856710D02*
X51983082Y-93570996D01*
X51983082Y-93570996D02*
X51983082Y-93070996D01*
X51983082Y-93070996D02*
X52054510Y-92785282D01*
X52054510Y-92785282D02*
X52197368Y-92642425D01*
X52197368Y-92642425D02*
X52340225Y-92570996D01*
X53411654Y-92570996D02*
X54268797Y-92570996D01*
X53840225Y-94070996D02*
X53840225Y-92570996D01*
X51268796Y-94985912D02*
X50554510Y-94985912D01*
X50554510Y-94985912D02*
X50483082Y-95700198D01*
X50483082Y-95700198D02*
X50554510Y-95628769D01*
X50554510Y-95628769D02*
X50697368Y-95557341D01*
X50697368Y-95557341D02*
X51054510Y-95557341D01*
X51054510Y-95557341D02*
X51197368Y-95628769D01*
X51197368Y-95628769D02*
X51268796Y-95700198D01*
X51268796Y-95700198D02*
X51340225Y-95843055D01*
X51340225Y-95843055D02*
X51340225Y-96200198D01*
X51340225Y-96200198D02*
X51268796Y-96343055D01*
X51268796Y-96343055D02*
X51197368Y-96414484D01*
X51197368Y-96414484D02*
X51054510Y-96485912D01*
X51054510Y-96485912D02*
X50697368Y-96485912D01*
X50697368Y-96485912D02*
X50554510Y-96414484D01*
X50554510Y-96414484D02*
X50483082Y-96343055D01*
X51768796Y-94985912D02*
X52268796Y-96485912D01*
X52268796Y-96485912D02*
X52768796Y-94985912D01*
X51340225Y-97472257D02*
X51197368Y-97400828D01*
X51197368Y-97400828D02*
X50983082Y-97400828D01*
X50983082Y-97400828D02*
X50768796Y-97472257D01*
X50768796Y-97472257D02*
X50625939Y-97615114D01*
X50625939Y-97615114D02*
X50554510Y-97757971D01*
X50554510Y-97757971D02*
X50483082Y-98043685D01*
X50483082Y-98043685D02*
X50483082Y-98257971D01*
X50483082Y-98257971D02*
X50554510Y-98543685D01*
X50554510Y-98543685D02*
X50625939Y-98686542D01*
X50625939Y-98686542D02*
X50768796Y-98829400D01*
X50768796Y-98829400D02*
X50983082Y-98900828D01*
X50983082Y-98900828D02*
X51125939Y-98900828D01*
X51125939Y-98900828D02*
X51340225Y-98829400D01*
X51340225Y-98829400D02*
X51411653Y-98757971D01*
X51411653Y-98757971D02*
X51411653Y-98257971D01*
X51411653Y-98257971D02*
X51125939Y-98257971D01*
X52054510Y-98900828D02*
X52054510Y-97400828D01*
X52054510Y-97400828D02*
X52911653Y-98900828D01*
X52911653Y-98900828D02*
X52911653Y-97400828D01*
X53625939Y-98900828D02*
X53625939Y-97400828D01*
X53625939Y-97400828D02*
X53983082Y-97400828D01*
X53983082Y-97400828D02*
X54197368Y-97472257D01*
X54197368Y-97472257D02*
X54340225Y-97615114D01*
X54340225Y-97615114D02*
X54411654Y-97757971D01*
X54411654Y-97757971D02*
X54483082Y-98043685D01*
X54483082Y-98043685D02*
X54483082Y-98257971D01*
X54483082Y-98257971D02*
X54411654Y-98543685D01*
X54411654Y-98543685D02*
X54340225Y-98686542D01*
X54340225Y-98686542D02*
X54197368Y-98829400D01*
X54197368Y-98829400D02*
X53983082Y-98900828D01*
X53983082Y-98900828D02*
X53625939Y-98900828D01*
D11*
X120033333Y-82759580D02*
X119985714Y-82807200D01*
X119985714Y-82807200D02*
X119842857Y-82854819D01*
X119842857Y-82854819D02*
X119747619Y-82854819D01*
X119747619Y-82854819D02*
X119604762Y-82807200D01*
X119604762Y-82807200D02*
X119509524Y-82711961D01*
X119509524Y-82711961D02*
X119461905Y-82616723D01*
X119461905Y-82616723D02*
X119414286Y-82426247D01*
X119414286Y-82426247D02*
X119414286Y-82283390D01*
X119414286Y-82283390D02*
X119461905Y-82092914D01*
X119461905Y-82092914D02*
X119509524Y-81997676D01*
X119509524Y-81997676D02*
X119604762Y-81902438D01*
X119604762Y-81902438D02*
X119747619Y-81854819D01*
X119747619Y-81854819D02*
X119842857Y-81854819D01*
X119842857Y-81854819D02*
X119985714Y-81902438D01*
X119985714Y-81902438D02*
X120033333Y-81950057D01*
X120985714Y-82854819D02*
X120414286Y-82854819D01*
X120700000Y-82854819D02*
X120700000Y-81854819D01*
X120700000Y-81854819D02*
X120604762Y-81997676D01*
X120604762Y-81997676D02*
X120509524Y-82092914D01*
X120509524Y-82092914D02*
X120414286Y-82140533D01*
X127254819Y-85066666D02*
X126778628Y-85399999D01*
X127254819Y-85638094D02*
X126254819Y-85638094D01*
X126254819Y-85638094D02*
X126254819Y-85257142D01*
X126254819Y-85257142D02*
X126302438Y-85161904D01*
X126302438Y-85161904D02*
X126350057Y-85114285D01*
X126350057Y-85114285D02*
X126445295Y-85066666D01*
X126445295Y-85066666D02*
X126588152Y-85066666D01*
X126588152Y-85066666D02*
X126683390Y-85114285D01*
X126683390Y-85114285D02*
X126731009Y-85161904D01*
X126731009Y-85161904D02*
X126778628Y-85257142D01*
X126778628Y-85257142D02*
X126778628Y-85638094D01*
X126254819Y-84209523D02*
X126254819Y-84399999D01*
X126254819Y-84399999D02*
X126302438Y-84495237D01*
X126302438Y-84495237D02*
X126350057Y-84542856D01*
X126350057Y-84542856D02*
X126492914Y-84638094D01*
X126492914Y-84638094D02*
X126683390Y-84685713D01*
X126683390Y-84685713D02*
X127064342Y-84685713D01*
X127064342Y-84685713D02*
X127159580Y-84638094D01*
X127159580Y-84638094D02*
X127207200Y-84590475D01*
X127207200Y-84590475D02*
X127254819Y-84495237D01*
X127254819Y-84495237D02*
X127254819Y-84304761D01*
X127254819Y-84304761D02*
X127207200Y-84209523D01*
X127207200Y-84209523D02*
X127159580Y-84161904D01*
X127159580Y-84161904D02*
X127064342Y-84114285D01*
X127064342Y-84114285D02*
X126826247Y-84114285D01*
X126826247Y-84114285D02*
X126731009Y-84161904D01*
X126731009Y-84161904D02*
X126683390Y-84209523D01*
X126683390Y-84209523D02*
X126635771Y-84304761D01*
X126635771Y-84304761D02*
X126635771Y-84495237D01*
X126635771Y-84495237D02*
X126683390Y-84590475D01*
X126683390Y-84590475D02*
X126731009Y-84638094D01*
X126731009Y-84638094D02*
X126826247Y-84685713D01*
X85844819Y-54833333D02*
X86559104Y-54833333D01*
X86559104Y-54833333D02*
X86701961Y-54880952D01*
X86701961Y-54880952D02*
X86797200Y-54976190D01*
X86797200Y-54976190D02*
X86844819Y-55119047D01*
X86844819Y-55119047D02*
X86844819Y-55214285D01*
X85940057Y-54404761D02*
X85892438Y-54357142D01*
X85892438Y-54357142D02*
X85844819Y-54261904D01*
X85844819Y-54261904D02*
X85844819Y-54023809D01*
X85844819Y-54023809D02*
X85892438Y-53928571D01*
X85892438Y-53928571D02*
X85940057Y-53880952D01*
X85940057Y-53880952D02*
X86035295Y-53833333D01*
X86035295Y-53833333D02*
X86130533Y-53833333D01*
X86130533Y-53833333D02*
X86273390Y-53880952D01*
X86273390Y-53880952D02*
X86844819Y-54452380D01*
X86844819Y-54452380D02*
X86844819Y-53833333D01*
X83633333Y-123859580D02*
X83585714Y-123907200D01*
X83585714Y-123907200D02*
X83442857Y-123954819D01*
X83442857Y-123954819D02*
X83347619Y-123954819D01*
X83347619Y-123954819D02*
X83204762Y-123907200D01*
X83204762Y-123907200D02*
X83109524Y-123811961D01*
X83109524Y-123811961D02*
X83061905Y-123716723D01*
X83061905Y-123716723D02*
X83014286Y-123526247D01*
X83014286Y-123526247D02*
X83014286Y-123383390D01*
X83014286Y-123383390D02*
X83061905Y-123192914D01*
X83061905Y-123192914D02*
X83109524Y-123097676D01*
X83109524Y-123097676D02*
X83204762Y-123002438D01*
X83204762Y-123002438D02*
X83347619Y-122954819D01*
X83347619Y-122954819D02*
X83442857Y-122954819D01*
X83442857Y-122954819D02*
X83585714Y-123002438D01*
X83585714Y-123002438D02*
X83633333Y-123050057D01*
X84490476Y-123288152D02*
X84490476Y-123954819D01*
X84252381Y-122907200D02*
X84014286Y-123621485D01*
X84014286Y-123621485D02*
X84633333Y-123621485D01*
X65659580Y-126366666D02*
X65707200Y-126414285D01*
X65707200Y-126414285D02*
X65754819Y-126557142D01*
X65754819Y-126557142D02*
X65754819Y-126652380D01*
X65754819Y-126652380D02*
X65707200Y-126795237D01*
X65707200Y-126795237D02*
X65611961Y-126890475D01*
X65611961Y-126890475D02*
X65516723Y-126938094D01*
X65516723Y-126938094D02*
X65326247Y-126985713D01*
X65326247Y-126985713D02*
X65183390Y-126985713D01*
X65183390Y-126985713D02*
X64992914Y-126938094D01*
X64992914Y-126938094D02*
X64897676Y-126890475D01*
X64897676Y-126890475D02*
X64802438Y-126795237D01*
X64802438Y-126795237D02*
X64754819Y-126652380D01*
X64754819Y-126652380D02*
X64754819Y-126557142D01*
X64754819Y-126557142D02*
X64802438Y-126414285D01*
X64802438Y-126414285D02*
X64850057Y-126366666D01*
X64754819Y-126033332D02*
X64754819Y-125366666D01*
X64754819Y-125366666D02*
X65754819Y-125795237D01*
X76833333Y-124159580D02*
X76785714Y-124207200D01*
X76785714Y-124207200D02*
X76642857Y-124254819D01*
X76642857Y-124254819D02*
X76547619Y-124254819D01*
X76547619Y-124254819D02*
X76404762Y-124207200D01*
X76404762Y-124207200D02*
X76309524Y-124111961D01*
X76309524Y-124111961D02*
X76261905Y-124016723D01*
X76261905Y-124016723D02*
X76214286Y-123826247D01*
X76214286Y-123826247D02*
X76214286Y-123683390D01*
X76214286Y-123683390D02*
X76261905Y-123492914D01*
X76261905Y-123492914D02*
X76309524Y-123397676D01*
X76309524Y-123397676D02*
X76404762Y-123302438D01*
X76404762Y-123302438D02*
X76547619Y-123254819D01*
X76547619Y-123254819D02*
X76642857Y-123254819D01*
X76642857Y-123254819D02*
X76785714Y-123302438D01*
X76785714Y-123302438D02*
X76833333Y-123350057D01*
X77690476Y-123254819D02*
X77500000Y-123254819D01*
X77500000Y-123254819D02*
X77404762Y-123302438D01*
X77404762Y-123302438D02*
X77357143Y-123350057D01*
X77357143Y-123350057D02*
X77261905Y-123492914D01*
X77261905Y-123492914D02*
X77214286Y-123683390D01*
X77214286Y-123683390D02*
X77214286Y-124064342D01*
X77214286Y-124064342D02*
X77261905Y-124159580D01*
X77261905Y-124159580D02*
X77309524Y-124207200D01*
X77309524Y-124207200D02*
X77404762Y-124254819D01*
X77404762Y-124254819D02*
X77595238Y-124254819D01*
X77595238Y-124254819D02*
X77690476Y-124207200D01*
X77690476Y-124207200D02*
X77738095Y-124159580D01*
X77738095Y-124159580D02*
X77785714Y-124064342D01*
X77785714Y-124064342D02*
X77785714Y-123826247D01*
X77785714Y-123826247D02*
X77738095Y-123731009D01*
X77738095Y-123731009D02*
X77690476Y-123683390D01*
X77690476Y-123683390D02*
X77595238Y-123635771D01*
X77595238Y-123635771D02*
X77404762Y-123635771D01*
X77404762Y-123635771D02*
X77309524Y-123683390D01*
X77309524Y-123683390D02*
X77261905Y-123731009D01*
X77261905Y-123731009D02*
X77214286Y-123826247D01*
X76157142Y-114654819D02*
X75823809Y-114178628D01*
X75585714Y-114654819D02*
X75585714Y-113654819D01*
X75585714Y-113654819D02*
X75966666Y-113654819D01*
X75966666Y-113654819D02*
X76061904Y-113702438D01*
X76061904Y-113702438D02*
X76109523Y-113750057D01*
X76109523Y-113750057D02*
X76157142Y-113845295D01*
X76157142Y-113845295D02*
X76157142Y-113988152D01*
X76157142Y-113988152D02*
X76109523Y-114083390D01*
X76109523Y-114083390D02*
X76061904Y-114131009D01*
X76061904Y-114131009D02*
X75966666Y-114178628D01*
X75966666Y-114178628D02*
X75585714Y-114178628D01*
X77109523Y-114654819D02*
X76538095Y-114654819D01*
X76823809Y-114654819D02*
X76823809Y-113654819D01*
X76823809Y-113654819D02*
X76728571Y-113797676D01*
X76728571Y-113797676D02*
X76633333Y-113892914D01*
X76633333Y-113892914D02*
X76538095Y-113940533D01*
X77728571Y-113654819D02*
X77823809Y-113654819D01*
X77823809Y-113654819D02*
X77919047Y-113702438D01*
X77919047Y-113702438D02*
X77966666Y-113750057D01*
X77966666Y-113750057D02*
X78014285Y-113845295D01*
X78014285Y-113845295D02*
X78061904Y-114035771D01*
X78061904Y-114035771D02*
X78061904Y-114273866D01*
X78061904Y-114273866D02*
X78014285Y-114464342D01*
X78014285Y-114464342D02*
X77966666Y-114559580D01*
X77966666Y-114559580D02*
X77919047Y-114607200D01*
X77919047Y-114607200D02*
X77823809Y-114654819D01*
X77823809Y-114654819D02*
X77728571Y-114654819D01*
X77728571Y-114654819D02*
X77633333Y-114607200D01*
X77633333Y-114607200D02*
X77585714Y-114559580D01*
X77585714Y-114559580D02*
X77538095Y-114464342D01*
X77538095Y-114464342D02*
X77490476Y-114273866D01*
X77490476Y-114273866D02*
X77490476Y-114035771D01*
X77490476Y-114035771D02*
X77538095Y-113845295D01*
X77538095Y-113845295D02*
X77585714Y-113750057D01*
X77585714Y-113750057D02*
X77633333Y-113702438D01*
X77633333Y-113702438D02*
X77728571Y-113654819D01*
X83633333Y-114254819D02*
X83300000Y-113778628D01*
X83061905Y-114254819D02*
X83061905Y-113254819D01*
X83061905Y-113254819D02*
X83442857Y-113254819D01*
X83442857Y-113254819D02*
X83538095Y-113302438D01*
X83538095Y-113302438D02*
X83585714Y-113350057D01*
X83585714Y-113350057D02*
X83633333Y-113445295D01*
X83633333Y-113445295D02*
X83633333Y-113588152D01*
X83633333Y-113588152D02*
X83585714Y-113683390D01*
X83585714Y-113683390D02*
X83538095Y-113731009D01*
X83538095Y-113731009D02*
X83442857Y-113778628D01*
X83442857Y-113778628D02*
X83061905Y-113778628D01*
X84109524Y-114254819D02*
X84300000Y-114254819D01*
X84300000Y-114254819D02*
X84395238Y-114207200D01*
X84395238Y-114207200D02*
X84442857Y-114159580D01*
X84442857Y-114159580D02*
X84538095Y-114016723D01*
X84538095Y-114016723D02*
X84585714Y-113826247D01*
X84585714Y-113826247D02*
X84585714Y-113445295D01*
X84585714Y-113445295D02*
X84538095Y-113350057D01*
X84538095Y-113350057D02*
X84490476Y-113302438D01*
X84490476Y-113302438D02*
X84395238Y-113254819D01*
X84395238Y-113254819D02*
X84204762Y-113254819D01*
X84204762Y-113254819D02*
X84109524Y-113302438D01*
X84109524Y-113302438D02*
X84061905Y-113350057D01*
X84061905Y-113350057D02*
X84014286Y-113445295D01*
X84014286Y-113445295D02*
X84014286Y-113683390D01*
X84014286Y-113683390D02*
X84061905Y-113778628D01*
X84061905Y-113778628D02*
X84109524Y-113826247D01*
X84109524Y-113826247D02*
X84204762Y-113873866D01*
X84204762Y-113873866D02*
X84395238Y-113873866D01*
X84395238Y-113873866D02*
X84490476Y-113826247D01*
X84490476Y-113826247D02*
X84538095Y-113778628D01*
X84538095Y-113778628D02*
X84585714Y-113683390D01*
X62757142Y-119254819D02*
X62423809Y-118778628D01*
X62185714Y-119254819D02*
X62185714Y-118254819D01*
X62185714Y-118254819D02*
X62566666Y-118254819D01*
X62566666Y-118254819D02*
X62661904Y-118302438D01*
X62661904Y-118302438D02*
X62709523Y-118350057D01*
X62709523Y-118350057D02*
X62757142Y-118445295D01*
X62757142Y-118445295D02*
X62757142Y-118588152D01*
X62757142Y-118588152D02*
X62709523Y-118683390D01*
X62709523Y-118683390D02*
X62661904Y-118731009D01*
X62661904Y-118731009D02*
X62566666Y-118778628D01*
X62566666Y-118778628D02*
X62185714Y-118778628D01*
X63709523Y-119254819D02*
X63138095Y-119254819D01*
X63423809Y-119254819D02*
X63423809Y-118254819D01*
X63423809Y-118254819D02*
X63328571Y-118397676D01*
X63328571Y-118397676D02*
X63233333Y-118492914D01*
X63233333Y-118492914D02*
X63138095Y-118540533D01*
X64090476Y-118350057D02*
X64138095Y-118302438D01*
X64138095Y-118302438D02*
X64233333Y-118254819D01*
X64233333Y-118254819D02*
X64471428Y-118254819D01*
X64471428Y-118254819D02*
X64566666Y-118302438D01*
X64566666Y-118302438D02*
X64614285Y-118350057D01*
X64614285Y-118350057D02*
X64661904Y-118445295D01*
X64661904Y-118445295D02*
X64661904Y-118540533D01*
X64661904Y-118540533D02*
X64614285Y-118683390D01*
X64614285Y-118683390D02*
X64042857Y-119254819D01*
X64042857Y-119254819D02*
X64661904Y-119254819D01*
X57461905Y-125254819D02*
X57461905Y-124254819D01*
X57461905Y-124254819D02*
X57700000Y-124254819D01*
X57700000Y-124254819D02*
X57842857Y-124302438D01*
X57842857Y-124302438D02*
X57938095Y-124397676D01*
X57938095Y-124397676D02*
X57985714Y-124492914D01*
X57985714Y-124492914D02*
X58033333Y-124683390D01*
X58033333Y-124683390D02*
X58033333Y-124826247D01*
X58033333Y-124826247D02*
X57985714Y-125016723D01*
X57985714Y-125016723D02*
X57938095Y-125111961D01*
X57938095Y-125111961D02*
X57842857Y-125207200D01*
X57842857Y-125207200D02*
X57700000Y-125254819D01*
X57700000Y-125254819D02*
X57461905Y-125254819D01*
X58890476Y-124588152D02*
X58890476Y-125254819D01*
X58652381Y-124207200D02*
X58414286Y-124921485D01*
X58414286Y-124921485D02*
X59033333Y-124921485D01*
X94259580Y-90526666D02*
X94307200Y-90574285D01*
X94307200Y-90574285D02*
X94354819Y-90717142D01*
X94354819Y-90717142D02*
X94354819Y-90812380D01*
X94354819Y-90812380D02*
X94307200Y-90955237D01*
X94307200Y-90955237D02*
X94211961Y-91050475D01*
X94211961Y-91050475D02*
X94116723Y-91098094D01*
X94116723Y-91098094D02*
X93926247Y-91145713D01*
X93926247Y-91145713D02*
X93783390Y-91145713D01*
X93783390Y-91145713D02*
X93592914Y-91098094D01*
X93592914Y-91098094D02*
X93497676Y-91050475D01*
X93497676Y-91050475D02*
X93402438Y-90955237D01*
X93402438Y-90955237D02*
X93354819Y-90812380D01*
X93354819Y-90812380D02*
X93354819Y-90717142D01*
X93354819Y-90717142D02*
X93402438Y-90574285D01*
X93402438Y-90574285D02*
X93450057Y-90526666D01*
X93354819Y-90193332D02*
X93354819Y-89574285D01*
X93354819Y-89574285D02*
X93735771Y-89907618D01*
X93735771Y-89907618D02*
X93735771Y-89764761D01*
X93735771Y-89764761D02*
X93783390Y-89669523D01*
X93783390Y-89669523D02*
X93831009Y-89621904D01*
X93831009Y-89621904D02*
X93926247Y-89574285D01*
X93926247Y-89574285D02*
X94164342Y-89574285D01*
X94164342Y-89574285D02*
X94259580Y-89621904D01*
X94259580Y-89621904D02*
X94307200Y-89669523D01*
X94307200Y-89669523D02*
X94354819Y-89764761D01*
X94354819Y-89764761D02*
X94354819Y-90050475D01*
X94354819Y-90050475D02*
X94307200Y-90145713D01*
X94307200Y-90145713D02*
X94259580Y-90193332D01*
X112088095Y-96809819D02*
X112088095Y-97619342D01*
X112088095Y-97619342D02*
X112135714Y-97714580D01*
X112135714Y-97714580D02*
X112183333Y-97762200D01*
X112183333Y-97762200D02*
X112278571Y-97809819D01*
X112278571Y-97809819D02*
X112469047Y-97809819D01*
X112469047Y-97809819D02*
X112564285Y-97762200D01*
X112564285Y-97762200D02*
X112611904Y-97714580D01*
X112611904Y-97714580D02*
X112659523Y-97619342D01*
X112659523Y-97619342D02*
X112659523Y-96809819D01*
X113088095Y-96905057D02*
X113135714Y-96857438D01*
X113135714Y-96857438D02*
X113230952Y-96809819D01*
X113230952Y-96809819D02*
X113469047Y-96809819D01*
X113469047Y-96809819D02*
X113564285Y-96857438D01*
X113564285Y-96857438D02*
X113611904Y-96905057D01*
X113611904Y-96905057D02*
X113659523Y-97000295D01*
X113659523Y-97000295D02*
X113659523Y-97095533D01*
X113659523Y-97095533D02*
X113611904Y-97238390D01*
X113611904Y-97238390D02*
X113040476Y-97809819D01*
X113040476Y-97809819D02*
X113659523Y-97809819D01*
D12*
X75348095Y-70487419D02*
X75348095Y-71296942D01*
X75348095Y-71296942D02*
X75395714Y-71392180D01*
X75395714Y-71392180D02*
X75443333Y-71439800D01*
X75443333Y-71439800D02*
X75538571Y-71487419D01*
X75538571Y-71487419D02*
X75729047Y-71487419D01*
X75729047Y-71487419D02*
X75824285Y-71439800D01*
X75824285Y-71439800D02*
X75871904Y-71392180D01*
X75871904Y-71392180D02*
X75919523Y-71296942D01*
X75919523Y-71296942D02*
X75919523Y-70487419D01*
X76919523Y-71487419D02*
X76348095Y-71487419D01*
X76633809Y-71487419D02*
X76633809Y-70487419D01*
X76633809Y-70487419D02*
X76538571Y-70630276D01*
X76538571Y-70630276D02*
X76443333Y-70725514D01*
X76443333Y-70725514D02*
X76348095Y-70773133D01*
D11*
X85733333Y-114254819D02*
X85400000Y-113778628D01*
X85161905Y-114254819D02*
X85161905Y-113254819D01*
X85161905Y-113254819D02*
X85542857Y-113254819D01*
X85542857Y-113254819D02*
X85638095Y-113302438D01*
X85638095Y-113302438D02*
X85685714Y-113350057D01*
X85685714Y-113350057D02*
X85733333Y-113445295D01*
X85733333Y-113445295D02*
X85733333Y-113588152D01*
X85733333Y-113588152D02*
X85685714Y-113683390D01*
X85685714Y-113683390D02*
X85638095Y-113731009D01*
X85638095Y-113731009D02*
X85542857Y-113778628D01*
X85542857Y-113778628D02*
X85161905Y-113778628D01*
X86066667Y-113254819D02*
X86685714Y-113254819D01*
X86685714Y-113254819D02*
X86352381Y-113635771D01*
X86352381Y-113635771D02*
X86495238Y-113635771D01*
X86495238Y-113635771D02*
X86590476Y-113683390D01*
X86590476Y-113683390D02*
X86638095Y-113731009D01*
X86638095Y-113731009D02*
X86685714Y-113826247D01*
X86685714Y-113826247D02*
X86685714Y-114064342D01*
X86685714Y-114064342D02*
X86638095Y-114159580D01*
X86638095Y-114159580D02*
X86590476Y-114207200D01*
X86590476Y-114207200D02*
X86495238Y-114254819D01*
X86495238Y-114254819D02*
X86209524Y-114254819D01*
X86209524Y-114254819D02*
X86114286Y-114207200D01*
X86114286Y-114207200D02*
X86066667Y-114159580D01*
X79333333Y-114754819D02*
X79000000Y-114278628D01*
X78761905Y-114754819D02*
X78761905Y-113754819D01*
X78761905Y-113754819D02*
X79142857Y-113754819D01*
X79142857Y-113754819D02*
X79238095Y-113802438D01*
X79238095Y-113802438D02*
X79285714Y-113850057D01*
X79285714Y-113850057D02*
X79333333Y-113945295D01*
X79333333Y-113945295D02*
X79333333Y-114088152D01*
X79333333Y-114088152D02*
X79285714Y-114183390D01*
X79285714Y-114183390D02*
X79238095Y-114231009D01*
X79238095Y-114231009D02*
X79142857Y-114278628D01*
X79142857Y-114278628D02*
X78761905Y-114278628D01*
X79714286Y-113850057D02*
X79761905Y-113802438D01*
X79761905Y-113802438D02*
X79857143Y-113754819D01*
X79857143Y-113754819D02*
X80095238Y-113754819D01*
X80095238Y-113754819D02*
X80190476Y-113802438D01*
X80190476Y-113802438D02*
X80238095Y-113850057D01*
X80238095Y-113850057D02*
X80285714Y-113945295D01*
X80285714Y-113945295D02*
X80285714Y-114040533D01*
X80285714Y-114040533D02*
X80238095Y-114183390D01*
X80238095Y-114183390D02*
X79666667Y-114754819D01*
X79666667Y-114754819D02*
X80285714Y-114754819D01*
X60833333Y-118654819D02*
X60500000Y-118178628D01*
X60261905Y-118654819D02*
X60261905Y-117654819D01*
X60261905Y-117654819D02*
X60642857Y-117654819D01*
X60642857Y-117654819D02*
X60738095Y-117702438D01*
X60738095Y-117702438D02*
X60785714Y-117750057D01*
X60785714Y-117750057D02*
X60833333Y-117845295D01*
X60833333Y-117845295D02*
X60833333Y-117988152D01*
X60833333Y-117988152D02*
X60785714Y-118083390D01*
X60785714Y-118083390D02*
X60738095Y-118131009D01*
X60738095Y-118131009D02*
X60642857Y-118178628D01*
X60642857Y-118178628D02*
X60261905Y-118178628D01*
X61785714Y-118654819D02*
X61214286Y-118654819D01*
X61500000Y-118654819D02*
X61500000Y-117654819D01*
X61500000Y-117654819D02*
X61404762Y-117797676D01*
X61404762Y-117797676D02*
X61309524Y-117892914D01*
X61309524Y-117892914D02*
X61214286Y-117940533D01*
X126057142Y-95554819D02*
X125723809Y-95078628D01*
X125485714Y-95554819D02*
X125485714Y-94554819D01*
X125485714Y-94554819D02*
X125866666Y-94554819D01*
X125866666Y-94554819D02*
X125961904Y-94602438D01*
X125961904Y-94602438D02*
X126009523Y-94650057D01*
X126009523Y-94650057D02*
X126057142Y-94745295D01*
X126057142Y-94745295D02*
X126057142Y-94888152D01*
X126057142Y-94888152D02*
X126009523Y-94983390D01*
X126009523Y-94983390D02*
X125961904Y-95031009D01*
X125961904Y-95031009D02*
X125866666Y-95078628D01*
X125866666Y-95078628D02*
X125485714Y-95078628D01*
X127009523Y-95554819D02*
X126438095Y-95554819D01*
X126723809Y-95554819D02*
X126723809Y-94554819D01*
X126723809Y-94554819D02*
X126628571Y-94697676D01*
X126628571Y-94697676D02*
X126533333Y-94792914D01*
X126533333Y-94792914D02*
X126438095Y-94840533D01*
X127342857Y-94554819D02*
X128009523Y-94554819D01*
X128009523Y-94554819D02*
X127580952Y-95554819D01*
X135704819Y-105842857D02*
X135228628Y-106176190D01*
X135704819Y-106414285D02*
X134704819Y-106414285D01*
X134704819Y-106414285D02*
X134704819Y-106033333D01*
X134704819Y-106033333D02*
X134752438Y-105938095D01*
X134752438Y-105938095D02*
X134800057Y-105890476D01*
X134800057Y-105890476D02*
X134895295Y-105842857D01*
X134895295Y-105842857D02*
X135038152Y-105842857D01*
X135038152Y-105842857D02*
X135133390Y-105890476D01*
X135133390Y-105890476D02*
X135181009Y-105938095D01*
X135181009Y-105938095D02*
X135228628Y-106033333D01*
X135228628Y-106033333D02*
X135228628Y-106414285D01*
X135704819Y-104890476D02*
X135704819Y-105461904D01*
X135704819Y-105176190D02*
X134704819Y-105176190D01*
X134704819Y-105176190D02*
X134847676Y-105271428D01*
X134847676Y-105271428D02*
X134942914Y-105366666D01*
X134942914Y-105366666D02*
X134990533Y-105461904D01*
X135038152Y-104033333D02*
X135704819Y-104033333D01*
X134657200Y-104271428D02*
X135371485Y-104509523D01*
X135371485Y-104509523D02*
X135371485Y-103890476D01*
X128757142Y-110654819D02*
X128423809Y-110178628D01*
X128185714Y-110654819D02*
X128185714Y-109654819D01*
X128185714Y-109654819D02*
X128566666Y-109654819D01*
X128566666Y-109654819D02*
X128661904Y-109702438D01*
X128661904Y-109702438D02*
X128709523Y-109750057D01*
X128709523Y-109750057D02*
X128757142Y-109845295D01*
X128757142Y-109845295D02*
X128757142Y-109988152D01*
X128757142Y-109988152D02*
X128709523Y-110083390D01*
X128709523Y-110083390D02*
X128661904Y-110131009D01*
X128661904Y-110131009D02*
X128566666Y-110178628D01*
X128566666Y-110178628D02*
X128185714Y-110178628D01*
X129709523Y-110654819D02*
X129138095Y-110654819D01*
X129423809Y-110654819D02*
X129423809Y-109654819D01*
X129423809Y-109654819D02*
X129328571Y-109797676D01*
X129328571Y-109797676D02*
X129233333Y-109892914D01*
X129233333Y-109892914D02*
X129138095Y-109940533D01*
X130185714Y-110654819D02*
X130376190Y-110654819D01*
X130376190Y-110654819D02*
X130471428Y-110607200D01*
X130471428Y-110607200D02*
X130519047Y-110559580D01*
X130519047Y-110559580D02*
X130614285Y-110416723D01*
X130614285Y-110416723D02*
X130661904Y-110226247D01*
X130661904Y-110226247D02*
X130661904Y-109845295D01*
X130661904Y-109845295D02*
X130614285Y-109750057D01*
X130614285Y-109750057D02*
X130566666Y-109702438D01*
X130566666Y-109702438D02*
X130471428Y-109654819D01*
X130471428Y-109654819D02*
X130280952Y-109654819D01*
X130280952Y-109654819D02*
X130185714Y-109702438D01*
X130185714Y-109702438D02*
X130138095Y-109750057D01*
X130138095Y-109750057D02*
X130090476Y-109845295D01*
X130090476Y-109845295D02*
X130090476Y-110083390D01*
X130090476Y-110083390D02*
X130138095Y-110178628D01*
X130138095Y-110178628D02*
X130185714Y-110226247D01*
X130185714Y-110226247D02*
X130280952Y-110273866D01*
X130280952Y-110273866D02*
X130471428Y-110273866D01*
X130471428Y-110273866D02*
X130566666Y-110226247D01*
X130566666Y-110226247D02*
X130614285Y-110178628D01*
X130614285Y-110178628D02*
X130661904Y-110083390D01*
X132454819Y-88542857D02*
X131978628Y-88876190D01*
X132454819Y-89114285D02*
X131454819Y-89114285D01*
X131454819Y-89114285D02*
X131454819Y-88733333D01*
X131454819Y-88733333D02*
X131502438Y-88638095D01*
X131502438Y-88638095D02*
X131550057Y-88590476D01*
X131550057Y-88590476D02*
X131645295Y-88542857D01*
X131645295Y-88542857D02*
X131788152Y-88542857D01*
X131788152Y-88542857D02*
X131883390Y-88590476D01*
X131883390Y-88590476D02*
X131931009Y-88638095D01*
X131931009Y-88638095D02*
X131978628Y-88733333D01*
X131978628Y-88733333D02*
X131978628Y-89114285D01*
X131550057Y-88161904D02*
X131502438Y-88114285D01*
X131502438Y-88114285D02*
X131454819Y-88019047D01*
X131454819Y-88019047D02*
X131454819Y-87780952D01*
X131454819Y-87780952D02*
X131502438Y-87685714D01*
X131502438Y-87685714D02*
X131550057Y-87638095D01*
X131550057Y-87638095D02*
X131645295Y-87590476D01*
X131645295Y-87590476D02*
X131740533Y-87590476D01*
X131740533Y-87590476D02*
X131883390Y-87638095D01*
X131883390Y-87638095D02*
X132454819Y-88209523D01*
X132454819Y-88209523D02*
X132454819Y-87590476D01*
X131454819Y-86971428D02*
X131454819Y-86876190D01*
X131454819Y-86876190D02*
X131502438Y-86780952D01*
X131502438Y-86780952D02*
X131550057Y-86733333D01*
X131550057Y-86733333D02*
X131645295Y-86685714D01*
X131645295Y-86685714D02*
X131835771Y-86638095D01*
X131835771Y-86638095D02*
X132073866Y-86638095D01*
X132073866Y-86638095D02*
X132264342Y-86685714D01*
X132264342Y-86685714D02*
X132359580Y-86733333D01*
X132359580Y-86733333D02*
X132407200Y-86780952D01*
X132407200Y-86780952D02*
X132454819Y-86876190D01*
X132454819Y-86876190D02*
X132454819Y-86971428D01*
X132454819Y-86971428D02*
X132407200Y-87066666D01*
X132407200Y-87066666D02*
X132359580Y-87114285D01*
X132359580Y-87114285D02*
X132264342Y-87161904D01*
X132264342Y-87161904D02*
X132073866Y-87209523D01*
X132073866Y-87209523D02*
X131835771Y-87209523D01*
X131835771Y-87209523D02*
X131645295Y-87161904D01*
X131645295Y-87161904D02*
X131550057Y-87114285D01*
X131550057Y-87114285D02*
X131502438Y-87066666D01*
X131502438Y-87066666D02*
X131454819Y-86971428D01*
X121657142Y-103804819D02*
X121323809Y-103328628D01*
X121085714Y-103804819D02*
X121085714Y-102804819D01*
X121085714Y-102804819D02*
X121466666Y-102804819D01*
X121466666Y-102804819D02*
X121561904Y-102852438D01*
X121561904Y-102852438D02*
X121609523Y-102900057D01*
X121609523Y-102900057D02*
X121657142Y-102995295D01*
X121657142Y-102995295D02*
X121657142Y-103138152D01*
X121657142Y-103138152D02*
X121609523Y-103233390D01*
X121609523Y-103233390D02*
X121561904Y-103281009D01*
X121561904Y-103281009D02*
X121466666Y-103328628D01*
X121466666Y-103328628D02*
X121085714Y-103328628D01*
X122609523Y-103804819D02*
X122038095Y-103804819D01*
X122323809Y-103804819D02*
X122323809Y-102804819D01*
X122323809Y-102804819D02*
X122228571Y-102947676D01*
X122228571Y-102947676D02*
X122133333Y-103042914D01*
X122133333Y-103042914D02*
X122038095Y-103090533D01*
X123514285Y-102804819D02*
X123038095Y-102804819D01*
X123038095Y-102804819D02*
X122990476Y-103281009D01*
X122990476Y-103281009D02*
X123038095Y-103233390D01*
X123038095Y-103233390D02*
X123133333Y-103185771D01*
X123133333Y-103185771D02*
X123371428Y-103185771D01*
X123371428Y-103185771D02*
X123466666Y-103233390D01*
X123466666Y-103233390D02*
X123514285Y-103281009D01*
X123514285Y-103281009D02*
X123561904Y-103376247D01*
X123561904Y-103376247D02*
X123561904Y-103614342D01*
X123561904Y-103614342D02*
X123514285Y-103709580D01*
X123514285Y-103709580D02*
X123466666Y-103757200D01*
X123466666Y-103757200D02*
X123371428Y-103804819D01*
X123371428Y-103804819D02*
X123133333Y-103804819D01*
X123133333Y-103804819D02*
X123038095Y-103757200D01*
X123038095Y-103757200D02*
X122990476Y-103709580D01*
X129657142Y-98054819D02*
X129323809Y-97578628D01*
X129085714Y-98054819D02*
X129085714Y-97054819D01*
X129085714Y-97054819D02*
X129466666Y-97054819D01*
X129466666Y-97054819D02*
X129561904Y-97102438D01*
X129561904Y-97102438D02*
X129609523Y-97150057D01*
X129609523Y-97150057D02*
X129657142Y-97245295D01*
X129657142Y-97245295D02*
X129657142Y-97388152D01*
X129657142Y-97388152D02*
X129609523Y-97483390D01*
X129609523Y-97483390D02*
X129561904Y-97531009D01*
X129561904Y-97531009D02*
X129466666Y-97578628D01*
X129466666Y-97578628D02*
X129085714Y-97578628D01*
X130609523Y-98054819D02*
X130038095Y-98054819D01*
X130323809Y-98054819D02*
X130323809Y-97054819D01*
X130323809Y-97054819D02*
X130228571Y-97197676D01*
X130228571Y-97197676D02*
X130133333Y-97292914D01*
X130133333Y-97292914D02*
X130038095Y-97340533D01*
X131180952Y-97483390D02*
X131085714Y-97435771D01*
X131085714Y-97435771D02*
X131038095Y-97388152D01*
X131038095Y-97388152D02*
X130990476Y-97292914D01*
X130990476Y-97292914D02*
X130990476Y-97245295D01*
X130990476Y-97245295D02*
X131038095Y-97150057D01*
X131038095Y-97150057D02*
X131085714Y-97102438D01*
X131085714Y-97102438D02*
X131180952Y-97054819D01*
X131180952Y-97054819D02*
X131371428Y-97054819D01*
X131371428Y-97054819D02*
X131466666Y-97102438D01*
X131466666Y-97102438D02*
X131514285Y-97150057D01*
X131514285Y-97150057D02*
X131561904Y-97245295D01*
X131561904Y-97245295D02*
X131561904Y-97292914D01*
X131561904Y-97292914D02*
X131514285Y-97388152D01*
X131514285Y-97388152D02*
X131466666Y-97435771D01*
X131466666Y-97435771D02*
X131371428Y-97483390D01*
X131371428Y-97483390D02*
X131180952Y-97483390D01*
X131180952Y-97483390D02*
X131085714Y-97531009D01*
X131085714Y-97531009D02*
X131038095Y-97578628D01*
X131038095Y-97578628D02*
X130990476Y-97673866D01*
X130990476Y-97673866D02*
X130990476Y-97864342D01*
X130990476Y-97864342D02*
X131038095Y-97959580D01*
X131038095Y-97959580D02*
X131085714Y-98007200D01*
X131085714Y-98007200D02*
X131180952Y-98054819D01*
X131180952Y-98054819D02*
X131371428Y-98054819D01*
X131371428Y-98054819D02*
X131466666Y-98007200D01*
X131466666Y-98007200D02*
X131514285Y-97959580D01*
X131514285Y-97959580D02*
X131561904Y-97864342D01*
X131561904Y-97864342D02*
X131561904Y-97673866D01*
X131561904Y-97673866D02*
X131514285Y-97578628D01*
X131514285Y-97578628D02*
X131466666Y-97531009D01*
X131466666Y-97531009D02*
X131371428Y-97483390D01*
X129557142Y-100354819D02*
X129223809Y-99878628D01*
X128985714Y-100354819D02*
X128985714Y-99354819D01*
X128985714Y-99354819D02*
X129366666Y-99354819D01*
X129366666Y-99354819D02*
X129461904Y-99402438D01*
X129461904Y-99402438D02*
X129509523Y-99450057D01*
X129509523Y-99450057D02*
X129557142Y-99545295D01*
X129557142Y-99545295D02*
X129557142Y-99688152D01*
X129557142Y-99688152D02*
X129509523Y-99783390D01*
X129509523Y-99783390D02*
X129461904Y-99831009D01*
X129461904Y-99831009D02*
X129366666Y-99878628D01*
X129366666Y-99878628D02*
X128985714Y-99878628D01*
X130509523Y-100354819D02*
X129938095Y-100354819D01*
X130223809Y-100354819D02*
X130223809Y-99354819D01*
X130223809Y-99354819D02*
X130128571Y-99497676D01*
X130128571Y-99497676D02*
X130033333Y-99592914D01*
X130033333Y-99592914D02*
X129938095Y-99640533D01*
X131366666Y-99354819D02*
X131176190Y-99354819D01*
X131176190Y-99354819D02*
X131080952Y-99402438D01*
X131080952Y-99402438D02*
X131033333Y-99450057D01*
X131033333Y-99450057D02*
X130938095Y-99592914D01*
X130938095Y-99592914D02*
X130890476Y-99783390D01*
X130890476Y-99783390D02*
X130890476Y-100164342D01*
X130890476Y-100164342D02*
X130938095Y-100259580D01*
X130938095Y-100259580D02*
X130985714Y-100307200D01*
X130985714Y-100307200D02*
X131080952Y-100354819D01*
X131080952Y-100354819D02*
X131271428Y-100354819D01*
X131271428Y-100354819D02*
X131366666Y-100307200D01*
X131366666Y-100307200D02*
X131414285Y-100259580D01*
X131414285Y-100259580D02*
X131461904Y-100164342D01*
X131461904Y-100164342D02*
X131461904Y-99926247D01*
X131461904Y-99926247D02*
X131414285Y-99831009D01*
X131414285Y-99831009D02*
X131366666Y-99783390D01*
X131366666Y-99783390D02*
X131271428Y-99735771D01*
X131271428Y-99735771D02*
X131080952Y-99735771D01*
X131080952Y-99735771D02*
X130985714Y-99783390D01*
X130985714Y-99783390D02*
X130938095Y-99831009D01*
X130938095Y-99831009D02*
X130890476Y-99926247D01*
X121654819Y-99542857D02*
X121178628Y-99876190D01*
X121654819Y-100114285D02*
X120654819Y-100114285D01*
X120654819Y-100114285D02*
X120654819Y-99733333D01*
X120654819Y-99733333D02*
X120702438Y-99638095D01*
X120702438Y-99638095D02*
X120750057Y-99590476D01*
X120750057Y-99590476D02*
X120845295Y-99542857D01*
X120845295Y-99542857D02*
X120988152Y-99542857D01*
X120988152Y-99542857D02*
X121083390Y-99590476D01*
X121083390Y-99590476D02*
X121131009Y-99638095D01*
X121131009Y-99638095D02*
X121178628Y-99733333D01*
X121178628Y-99733333D02*
X121178628Y-100114285D01*
X121654819Y-98590476D02*
X121654819Y-99161904D01*
X121654819Y-98876190D02*
X120654819Y-98876190D01*
X120654819Y-98876190D02*
X120797676Y-98971428D01*
X120797676Y-98971428D02*
X120892914Y-99066666D01*
X120892914Y-99066666D02*
X120940533Y-99161904D01*
X121654819Y-97638095D02*
X121654819Y-98209523D01*
X121654819Y-97923809D02*
X120654819Y-97923809D01*
X120654819Y-97923809D02*
X120797676Y-98019047D01*
X120797676Y-98019047D02*
X120892914Y-98114285D01*
X120892914Y-98114285D02*
X120940533Y-98209523D01*
X113454819Y-102342857D02*
X112978628Y-102676190D01*
X113454819Y-102914285D02*
X112454819Y-102914285D01*
X112454819Y-102914285D02*
X112454819Y-102533333D01*
X112454819Y-102533333D02*
X112502438Y-102438095D01*
X112502438Y-102438095D02*
X112550057Y-102390476D01*
X112550057Y-102390476D02*
X112645295Y-102342857D01*
X112645295Y-102342857D02*
X112788152Y-102342857D01*
X112788152Y-102342857D02*
X112883390Y-102390476D01*
X112883390Y-102390476D02*
X112931009Y-102438095D01*
X112931009Y-102438095D02*
X112978628Y-102533333D01*
X112978628Y-102533333D02*
X112978628Y-102914285D01*
X113454819Y-101390476D02*
X113454819Y-101961904D01*
X113454819Y-101676190D02*
X112454819Y-101676190D01*
X112454819Y-101676190D02*
X112597676Y-101771428D01*
X112597676Y-101771428D02*
X112692914Y-101866666D01*
X112692914Y-101866666D02*
X112740533Y-101961904D01*
X112454819Y-101057142D02*
X112454819Y-100438095D01*
X112454819Y-100438095D02*
X112835771Y-100771428D01*
X112835771Y-100771428D02*
X112835771Y-100628571D01*
X112835771Y-100628571D02*
X112883390Y-100533333D01*
X112883390Y-100533333D02*
X112931009Y-100485714D01*
X112931009Y-100485714D02*
X113026247Y-100438095D01*
X113026247Y-100438095D02*
X113264342Y-100438095D01*
X113264342Y-100438095D02*
X113359580Y-100485714D01*
X113359580Y-100485714D02*
X113407200Y-100533333D01*
X113407200Y-100533333D02*
X113454819Y-100628571D01*
X113454819Y-100628571D02*
X113454819Y-100914285D01*
X113454819Y-100914285D02*
X113407200Y-101009523D01*
X113407200Y-101009523D02*
X113359580Y-101057142D01*
X56333333Y-71264819D02*
X56000000Y-70788628D01*
X55761905Y-71264819D02*
X55761905Y-70264819D01*
X55761905Y-70264819D02*
X56142857Y-70264819D01*
X56142857Y-70264819D02*
X56238095Y-70312438D01*
X56238095Y-70312438D02*
X56285714Y-70360057D01*
X56285714Y-70360057D02*
X56333333Y-70455295D01*
X56333333Y-70455295D02*
X56333333Y-70598152D01*
X56333333Y-70598152D02*
X56285714Y-70693390D01*
X56285714Y-70693390D02*
X56238095Y-70741009D01*
X56238095Y-70741009D02*
X56142857Y-70788628D01*
X56142857Y-70788628D02*
X55761905Y-70788628D01*
X57190476Y-70598152D02*
X57190476Y-71264819D01*
X56952381Y-70217200D02*
X56714286Y-70931485D01*
X56714286Y-70931485D02*
X57333333Y-70931485D01*
X122433333Y-82954819D02*
X122100000Y-82478628D01*
X121861905Y-82954819D02*
X121861905Y-81954819D01*
X121861905Y-81954819D02*
X122242857Y-81954819D01*
X122242857Y-81954819D02*
X122338095Y-82002438D01*
X122338095Y-82002438D02*
X122385714Y-82050057D01*
X122385714Y-82050057D02*
X122433333Y-82145295D01*
X122433333Y-82145295D02*
X122433333Y-82288152D01*
X122433333Y-82288152D02*
X122385714Y-82383390D01*
X122385714Y-82383390D02*
X122338095Y-82431009D01*
X122338095Y-82431009D02*
X122242857Y-82478628D01*
X122242857Y-82478628D02*
X121861905Y-82478628D01*
X123004762Y-82383390D02*
X122909524Y-82335771D01*
X122909524Y-82335771D02*
X122861905Y-82288152D01*
X122861905Y-82288152D02*
X122814286Y-82192914D01*
X122814286Y-82192914D02*
X122814286Y-82145295D01*
X122814286Y-82145295D02*
X122861905Y-82050057D01*
X122861905Y-82050057D02*
X122909524Y-82002438D01*
X122909524Y-82002438D02*
X123004762Y-81954819D01*
X123004762Y-81954819D02*
X123195238Y-81954819D01*
X123195238Y-81954819D02*
X123290476Y-82002438D01*
X123290476Y-82002438D02*
X123338095Y-82050057D01*
X123338095Y-82050057D02*
X123385714Y-82145295D01*
X123385714Y-82145295D02*
X123385714Y-82192914D01*
X123385714Y-82192914D02*
X123338095Y-82288152D01*
X123338095Y-82288152D02*
X123290476Y-82335771D01*
X123290476Y-82335771D02*
X123195238Y-82383390D01*
X123195238Y-82383390D02*
X123004762Y-82383390D01*
X123004762Y-82383390D02*
X122909524Y-82431009D01*
X122909524Y-82431009D02*
X122861905Y-82478628D01*
X122861905Y-82478628D02*
X122814286Y-82573866D01*
X122814286Y-82573866D02*
X122814286Y-82764342D01*
X122814286Y-82764342D02*
X122861905Y-82859580D01*
X122861905Y-82859580D02*
X122909524Y-82907200D01*
X122909524Y-82907200D02*
X123004762Y-82954819D01*
X123004762Y-82954819D02*
X123195238Y-82954819D01*
X123195238Y-82954819D02*
X123290476Y-82907200D01*
X123290476Y-82907200D02*
X123338095Y-82859580D01*
X123338095Y-82859580D02*
X123385714Y-82764342D01*
X123385714Y-82764342D02*
X123385714Y-82573866D01*
X123385714Y-82573866D02*
X123338095Y-82478628D01*
X123338095Y-82478628D02*
X123290476Y-82431009D01*
X123290476Y-82431009D02*
X123195238Y-82383390D01*
X122454819Y-89066666D02*
X121978628Y-89399999D01*
X122454819Y-89638094D02*
X121454819Y-89638094D01*
X121454819Y-89638094D02*
X121454819Y-89257142D01*
X121454819Y-89257142D02*
X121502438Y-89161904D01*
X121502438Y-89161904D02*
X121550057Y-89114285D01*
X121550057Y-89114285D02*
X121645295Y-89066666D01*
X121645295Y-89066666D02*
X121788152Y-89066666D01*
X121788152Y-89066666D02*
X121883390Y-89114285D01*
X121883390Y-89114285D02*
X121931009Y-89161904D01*
X121931009Y-89161904D02*
X121978628Y-89257142D01*
X121978628Y-89257142D02*
X121978628Y-89638094D01*
X121454819Y-88733332D02*
X121454819Y-88066666D01*
X121454819Y-88066666D02*
X122454819Y-88495237D01*
X88033333Y-108084819D02*
X87700000Y-107608628D01*
X87461905Y-108084819D02*
X87461905Y-107084819D01*
X87461905Y-107084819D02*
X87842857Y-107084819D01*
X87842857Y-107084819D02*
X87938095Y-107132438D01*
X87938095Y-107132438D02*
X87985714Y-107180057D01*
X87985714Y-107180057D02*
X88033333Y-107275295D01*
X88033333Y-107275295D02*
X88033333Y-107418152D01*
X88033333Y-107418152D02*
X87985714Y-107513390D01*
X87985714Y-107513390D02*
X87938095Y-107561009D01*
X87938095Y-107561009D02*
X87842857Y-107608628D01*
X87842857Y-107608628D02*
X87461905Y-107608628D01*
X88938095Y-107084819D02*
X88461905Y-107084819D01*
X88461905Y-107084819D02*
X88414286Y-107561009D01*
X88414286Y-107561009D02*
X88461905Y-107513390D01*
X88461905Y-107513390D02*
X88557143Y-107465771D01*
X88557143Y-107465771D02*
X88795238Y-107465771D01*
X88795238Y-107465771D02*
X88890476Y-107513390D01*
X88890476Y-107513390D02*
X88938095Y-107561009D01*
X88938095Y-107561009D02*
X88985714Y-107656247D01*
X88985714Y-107656247D02*
X88985714Y-107894342D01*
X88985714Y-107894342D02*
X88938095Y-107989580D01*
X88938095Y-107989580D02*
X88890476Y-108037200D01*
X88890476Y-108037200D02*
X88795238Y-108084819D01*
X88795238Y-108084819D02*
X88557143Y-108084819D01*
X88557143Y-108084819D02*
X88461905Y-108037200D01*
X88461905Y-108037200D02*
X88414286Y-107989580D01*
X127504761Y-105650057D02*
X127409523Y-105602438D01*
X127409523Y-105602438D02*
X127314285Y-105507200D01*
X127314285Y-105507200D02*
X127171428Y-105364342D01*
X127171428Y-105364342D02*
X127076190Y-105316723D01*
X127076190Y-105316723D02*
X126980952Y-105316723D01*
X127028571Y-105554819D02*
X126933333Y-105507200D01*
X126933333Y-105507200D02*
X126838095Y-105411961D01*
X126838095Y-105411961D02*
X126790476Y-105221485D01*
X126790476Y-105221485D02*
X126790476Y-104888152D01*
X126790476Y-104888152D02*
X126838095Y-104697676D01*
X126838095Y-104697676D02*
X126933333Y-104602438D01*
X126933333Y-104602438D02*
X127028571Y-104554819D01*
X127028571Y-104554819D02*
X127219047Y-104554819D01*
X127219047Y-104554819D02*
X127314285Y-104602438D01*
X127314285Y-104602438D02*
X127409523Y-104697676D01*
X127409523Y-104697676D02*
X127457142Y-104888152D01*
X127457142Y-104888152D02*
X127457142Y-105221485D01*
X127457142Y-105221485D02*
X127409523Y-105411961D01*
X127409523Y-105411961D02*
X127314285Y-105507200D01*
X127314285Y-105507200D02*
X127219047Y-105554819D01*
X127219047Y-105554819D02*
X127028571Y-105554819D01*
X127838095Y-104650057D02*
X127885714Y-104602438D01*
X127885714Y-104602438D02*
X127980952Y-104554819D01*
X127980952Y-104554819D02*
X128219047Y-104554819D01*
X128219047Y-104554819D02*
X128314285Y-104602438D01*
X128314285Y-104602438D02*
X128361904Y-104650057D01*
X128361904Y-104650057D02*
X128409523Y-104745295D01*
X128409523Y-104745295D02*
X128409523Y-104840533D01*
X128409523Y-104840533D02*
X128361904Y-104983390D01*
X128361904Y-104983390D02*
X127790476Y-105554819D01*
X127790476Y-105554819D02*
X128409523Y-105554819D01*
X133450057Y-92695238D02*
X133402438Y-92790476D01*
X133402438Y-92790476D02*
X133307200Y-92885714D01*
X133307200Y-92885714D02*
X133164342Y-93028571D01*
X133164342Y-93028571D02*
X133116723Y-93123809D01*
X133116723Y-93123809D02*
X133116723Y-93219047D01*
X133354819Y-93171428D02*
X133307200Y-93266666D01*
X133307200Y-93266666D02*
X133211961Y-93361904D01*
X133211961Y-93361904D02*
X133021485Y-93409523D01*
X133021485Y-93409523D02*
X132688152Y-93409523D01*
X132688152Y-93409523D02*
X132497676Y-93361904D01*
X132497676Y-93361904D02*
X132402438Y-93266666D01*
X132402438Y-93266666D02*
X132354819Y-93171428D01*
X132354819Y-93171428D02*
X132354819Y-92980952D01*
X132354819Y-92980952D02*
X132402438Y-92885714D01*
X132402438Y-92885714D02*
X132497676Y-92790476D01*
X132497676Y-92790476D02*
X132688152Y-92742857D01*
X132688152Y-92742857D02*
X133021485Y-92742857D01*
X133021485Y-92742857D02*
X133211961Y-92790476D01*
X133211961Y-92790476D02*
X133307200Y-92885714D01*
X133307200Y-92885714D02*
X133354819Y-92980952D01*
X133354819Y-92980952D02*
X133354819Y-93171428D01*
X132354819Y-92409523D02*
X132354819Y-91790476D01*
X132354819Y-91790476D02*
X132735771Y-92123809D01*
X132735771Y-92123809D02*
X132735771Y-91980952D01*
X132735771Y-91980952D02*
X132783390Y-91885714D01*
X132783390Y-91885714D02*
X132831009Y-91838095D01*
X132831009Y-91838095D02*
X132926247Y-91790476D01*
X132926247Y-91790476D02*
X133164342Y-91790476D01*
X133164342Y-91790476D02*
X133259580Y-91838095D01*
X133259580Y-91838095D02*
X133307200Y-91885714D01*
X133307200Y-91885714D02*
X133354819Y-91980952D01*
X133354819Y-91980952D02*
X133354819Y-92266666D01*
X133354819Y-92266666D02*
X133307200Y-92361904D01*
X133307200Y-92361904D02*
X133259580Y-92409523D01*
X118204761Y-104750057D02*
X118109523Y-104702438D01*
X118109523Y-104702438D02*
X118014285Y-104607200D01*
X118014285Y-104607200D02*
X117871428Y-104464342D01*
X117871428Y-104464342D02*
X117776190Y-104416723D01*
X117776190Y-104416723D02*
X117680952Y-104416723D01*
X117728571Y-104654819D02*
X117633333Y-104607200D01*
X117633333Y-104607200D02*
X117538095Y-104511961D01*
X117538095Y-104511961D02*
X117490476Y-104321485D01*
X117490476Y-104321485D02*
X117490476Y-103988152D01*
X117490476Y-103988152D02*
X117538095Y-103797676D01*
X117538095Y-103797676D02*
X117633333Y-103702438D01*
X117633333Y-103702438D02*
X117728571Y-103654819D01*
X117728571Y-103654819D02*
X117919047Y-103654819D01*
X117919047Y-103654819D02*
X118014285Y-103702438D01*
X118014285Y-103702438D02*
X118109523Y-103797676D01*
X118109523Y-103797676D02*
X118157142Y-103988152D01*
X118157142Y-103988152D02*
X118157142Y-104321485D01*
X118157142Y-104321485D02*
X118109523Y-104511961D01*
X118109523Y-104511961D02*
X118014285Y-104607200D01*
X118014285Y-104607200D02*
X117919047Y-104654819D01*
X117919047Y-104654819D02*
X117728571Y-104654819D01*
X119109523Y-104654819D02*
X118538095Y-104654819D01*
X118823809Y-104654819D02*
X118823809Y-103654819D01*
X118823809Y-103654819D02*
X118728571Y-103797676D01*
X118728571Y-103797676D02*
X118633333Y-103892914D01*
X118633333Y-103892914D02*
X118538095Y-103940533D01*
X59661905Y-92654819D02*
X59661905Y-91654819D01*
X59661905Y-91654819D02*
X59900000Y-91654819D01*
X59900000Y-91654819D02*
X60042857Y-91702438D01*
X60042857Y-91702438D02*
X60138095Y-91797676D01*
X60138095Y-91797676D02*
X60185714Y-91892914D01*
X60185714Y-91892914D02*
X60233333Y-92083390D01*
X60233333Y-92083390D02*
X60233333Y-92226247D01*
X60233333Y-92226247D02*
X60185714Y-92416723D01*
X60185714Y-92416723D02*
X60138095Y-92511961D01*
X60138095Y-92511961D02*
X60042857Y-92607200D01*
X60042857Y-92607200D02*
X59900000Y-92654819D01*
X59900000Y-92654819D02*
X59661905Y-92654819D01*
X60614286Y-91750057D02*
X60661905Y-91702438D01*
X60661905Y-91702438D02*
X60757143Y-91654819D01*
X60757143Y-91654819D02*
X60995238Y-91654819D01*
X60995238Y-91654819D02*
X61090476Y-91702438D01*
X61090476Y-91702438D02*
X61138095Y-91750057D01*
X61138095Y-91750057D02*
X61185714Y-91845295D01*
X61185714Y-91845295D02*
X61185714Y-91940533D01*
X61185714Y-91940533D02*
X61138095Y-92083390D01*
X61138095Y-92083390D02*
X60566667Y-92654819D01*
X60566667Y-92654819D02*
X61185714Y-92654819D01*
X95854819Y-109173094D02*
X94854819Y-109173094D01*
X94854819Y-109173094D02*
X94854819Y-108934999D01*
X94854819Y-108934999D02*
X94902438Y-108792142D01*
X94902438Y-108792142D02*
X94997676Y-108696904D01*
X94997676Y-108696904D02*
X95092914Y-108649285D01*
X95092914Y-108649285D02*
X95283390Y-108601666D01*
X95283390Y-108601666D02*
X95426247Y-108601666D01*
X95426247Y-108601666D02*
X95616723Y-108649285D01*
X95616723Y-108649285D02*
X95711961Y-108696904D01*
X95711961Y-108696904D02*
X95807200Y-108792142D01*
X95807200Y-108792142D02*
X95854819Y-108934999D01*
X95854819Y-108934999D02*
X95854819Y-109173094D01*
X95854819Y-107649285D02*
X95854819Y-108220713D01*
X95854819Y-107934999D02*
X94854819Y-107934999D01*
X94854819Y-107934999D02*
X94997676Y-108030237D01*
X94997676Y-108030237D02*
X95092914Y-108125475D01*
X95092914Y-108125475D02*
X95140533Y-108220713D01*
X90533333Y-100159580D02*
X90485714Y-100207200D01*
X90485714Y-100207200D02*
X90342857Y-100254819D01*
X90342857Y-100254819D02*
X90247619Y-100254819D01*
X90247619Y-100254819D02*
X90104762Y-100207200D01*
X90104762Y-100207200D02*
X90009524Y-100111961D01*
X90009524Y-100111961D02*
X89961905Y-100016723D01*
X89961905Y-100016723D02*
X89914286Y-99826247D01*
X89914286Y-99826247D02*
X89914286Y-99683390D01*
X89914286Y-99683390D02*
X89961905Y-99492914D01*
X89961905Y-99492914D02*
X90009524Y-99397676D01*
X90009524Y-99397676D02*
X90104762Y-99302438D01*
X90104762Y-99302438D02*
X90247619Y-99254819D01*
X90247619Y-99254819D02*
X90342857Y-99254819D01*
X90342857Y-99254819D02*
X90485714Y-99302438D01*
X90485714Y-99302438D02*
X90533333Y-99350057D01*
X90914286Y-99350057D02*
X90961905Y-99302438D01*
X90961905Y-99302438D02*
X91057143Y-99254819D01*
X91057143Y-99254819D02*
X91295238Y-99254819D01*
X91295238Y-99254819D02*
X91390476Y-99302438D01*
X91390476Y-99302438D02*
X91438095Y-99350057D01*
X91438095Y-99350057D02*
X91485714Y-99445295D01*
X91485714Y-99445295D02*
X91485714Y-99540533D01*
X91485714Y-99540533D02*
X91438095Y-99683390D01*
X91438095Y-99683390D02*
X90866667Y-100254819D01*
X90866667Y-100254819D02*
X91485714Y-100254819D01*
X60470833Y-99839580D02*
X60423214Y-99887200D01*
X60423214Y-99887200D02*
X60280357Y-99934819D01*
X60280357Y-99934819D02*
X60185119Y-99934819D01*
X60185119Y-99934819D02*
X60042262Y-99887200D01*
X60042262Y-99887200D02*
X59947024Y-99791961D01*
X59947024Y-99791961D02*
X59899405Y-99696723D01*
X59899405Y-99696723D02*
X59851786Y-99506247D01*
X59851786Y-99506247D02*
X59851786Y-99363390D01*
X59851786Y-99363390D02*
X59899405Y-99172914D01*
X59899405Y-99172914D02*
X59947024Y-99077676D01*
X59947024Y-99077676D02*
X60042262Y-98982438D01*
X60042262Y-98982438D02*
X60185119Y-98934819D01*
X60185119Y-98934819D02*
X60280357Y-98934819D01*
X60280357Y-98934819D02*
X60423214Y-98982438D01*
X60423214Y-98982438D02*
X60470833Y-99030057D01*
X61375595Y-98934819D02*
X60899405Y-98934819D01*
X60899405Y-98934819D02*
X60851786Y-99411009D01*
X60851786Y-99411009D02*
X60899405Y-99363390D01*
X60899405Y-99363390D02*
X60994643Y-99315771D01*
X60994643Y-99315771D02*
X61232738Y-99315771D01*
X61232738Y-99315771D02*
X61327976Y-99363390D01*
X61327976Y-99363390D02*
X61375595Y-99411009D01*
X61375595Y-99411009D02*
X61423214Y-99506247D01*
X61423214Y-99506247D02*
X61423214Y-99744342D01*
X61423214Y-99744342D02*
X61375595Y-99839580D01*
X61375595Y-99839580D02*
X61327976Y-99887200D01*
X61327976Y-99887200D02*
X61232738Y-99934819D01*
X61232738Y-99934819D02*
X60994643Y-99934819D01*
X60994643Y-99934819D02*
X60899405Y-99887200D01*
X60899405Y-99887200D02*
X60851786Y-99839580D01*
X52966666Y-75854819D02*
X52966666Y-76569104D01*
X52966666Y-76569104D02*
X52919047Y-76711961D01*
X52919047Y-76711961D02*
X52823809Y-76807200D01*
X52823809Y-76807200D02*
X52680952Y-76854819D01*
X52680952Y-76854819D02*
X52585714Y-76854819D01*
X53966666Y-76854819D02*
X53395238Y-76854819D01*
X53680952Y-76854819D02*
X53680952Y-75854819D01*
X53680952Y-75854819D02*
X53585714Y-75997676D01*
X53585714Y-75997676D02*
X53490476Y-76092914D01*
X53490476Y-76092914D02*
X53395238Y-76140533D01*
X79561905Y-124154819D02*
X79561905Y-123154819D01*
X79561905Y-123154819D02*
X79800000Y-123154819D01*
X79800000Y-123154819D02*
X79942857Y-123202438D01*
X79942857Y-123202438D02*
X80038095Y-123297676D01*
X80038095Y-123297676D02*
X80085714Y-123392914D01*
X80085714Y-123392914D02*
X80133333Y-123583390D01*
X80133333Y-123583390D02*
X80133333Y-123726247D01*
X80133333Y-123726247D02*
X80085714Y-123916723D01*
X80085714Y-123916723D02*
X80038095Y-124011961D01*
X80038095Y-124011961D02*
X79942857Y-124107200D01*
X79942857Y-124107200D02*
X79800000Y-124154819D01*
X79800000Y-124154819D02*
X79561905Y-124154819D01*
X80466667Y-123154819D02*
X81085714Y-123154819D01*
X81085714Y-123154819D02*
X80752381Y-123535771D01*
X80752381Y-123535771D02*
X80895238Y-123535771D01*
X80895238Y-123535771D02*
X80990476Y-123583390D01*
X80990476Y-123583390D02*
X81038095Y-123631009D01*
X81038095Y-123631009D02*
X81085714Y-123726247D01*
X81085714Y-123726247D02*
X81085714Y-123964342D01*
X81085714Y-123964342D02*
X81038095Y-124059580D01*
X81038095Y-124059580D02*
X80990476Y-124107200D01*
X80990476Y-124107200D02*
X80895238Y-124154819D01*
X80895238Y-124154819D02*
X80609524Y-124154819D01*
X80609524Y-124154819D02*
X80514286Y-124107200D01*
X80514286Y-124107200D02*
X80466667Y-124059580D01*
D13*
%TO.C,C1*%
X119515000Y-84736248D02*
X119515000Y-85258752D01*
X120985000Y-84736248D02*
X120985000Y-85258752D01*
%TO.C,R6*%
X125735000Y-85227064D02*
X125735000Y-84772936D01*
X124265000Y-85227064D02*
X124265000Y-84772936D01*
%TO.C,J2*%
X90430000Y-55830000D02*
X95570000Y-55830000D01*
X90430000Y-55830000D02*
X90430000Y-53170000D01*
X95570000Y-55830000D02*
X95570000Y-53170000D01*
X87830000Y-54500000D02*
X87830000Y-53170000D01*
X87830000Y-53170000D02*
X89160000Y-53170000D01*
X90430000Y-53170000D02*
X95570000Y-53170000D01*
%TO.C,C4*%
X84535000Y-120376248D02*
X84535000Y-120898752D01*
X83065000Y-120376248D02*
X83065000Y-120898752D01*
%TO.C,C7*%
X64135000Y-125711248D02*
X64135000Y-126233752D01*
X62665000Y-125711248D02*
X62665000Y-126233752D01*
%TO.C,C6*%
X77635000Y-120801248D02*
X77635000Y-121323752D01*
X76165000Y-120801248D02*
X76165000Y-121323752D01*
%TO.C,R10*%
X76265000Y-116772936D02*
X76265000Y-117227064D01*
X77735000Y-116772936D02*
X77735000Y-117227064D01*
%TO.C,R9*%
X84535000Y-116372936D02*
X84535000Y-116827064D01*
X83065000Y-116372936D02*
X83065000Y-116827064D01*
%TO.C,R12*%
X64135000Y-121682936D02*
X64135000Y-122137064D01*
X62665000Y-121682936D02*
X62665000Y-122137064D01*
%TO.C,D4*%
X60510000Y-124112500D02*
X60790000Y-124112500D01*
X61810000Y-124198248D02*
X61810000Y-125582500D01*
X61810000Y-125582500D02*
X61160000Y-125582500D01*
X60140000Y-125582500D02*
X59490000Y-125582500D01*
X59490000Y-125582500D02*
X59490000Y-124112500D01*
X62010000Y-124047500D02*
X61820000Y-123907500D01*
X62010000Y-123767500D01*
X62010000Y-124047500D01*
G36*
X62010000Y-124047500D02*
G01*
X61820000Y-123907500D01*
X62010000Y-123767500D01*
X62010000Y-124047500D01*
G37*
%TO.C,C3*%
X102860000Y-92050000D02*
X99010000Y-92050000D01*
X92140000Y-92050000D02*
X95990000Y-92050000D01*
X102860000Y-101705563D02*
X102860000Y-92050000D01*
X92140000Y-101705563D02*
X92140000Y-92050000D01*
X101795563Y-102770000D02*
X102860000Y-101705563D01*
X101795563Y-102770000D02*
X99010000Y-102770000D01*
X93204437Y-102770000D02*
X92140000Y-101705563D01*
X93204437Y-102770000D02*
X95990000Y-102770000D01*
X94115000Y-103635000D02*
X95365000Y-103635000D01*
X94740000Y-104260000D02*
X94740000Y-103010000D01*
%TO.C,U2*%
X116710000Y-96515000D02*
X108990000Y-96515000D01*
X116710000Y-96270000D02*
X116710000Y-96515000D01*
X116710000Y-78395000D02*
X116710000Y-78640000D01*
X108990000Y-96515000D02*
X108990000Y-96270000D01*
X108990000Y-78640000D02*
X108990000Y-78395000D01*
X108990000Y-78395000D02*
X116710000Y-78395000D01*
X117840000Y-96745000D02*
X117160000Y-96745000D01*
X117500000Y-96275000D01*
X117840000Y-96745000D01*
G36*
X117840000Y-96745000D02*
G01*
X117160000Y-96745000D01*
X117500000Y-96275000D01*
X117840000Y-96745000D01*
G37*
%TO.C,U1*%
D12*
X63310000Y-99520000D02*
X65690000Y-99520000D01*
X65690000Y-78940000D01*
X63310000Y-78940000D01*
X63310000Y-99520000D01*
X88910000Y-99520000D02*
X86530000Y-99520000D01*
X86530000Y-78940000D01*
X88910000Y-78940000D01*
X88910000Y-99520000D01*
X88910000Y-106330000D02*
X63310000Y-106330000D01*
X63310000Y-72130000D01*
X88910000Y-72130000D01*
X88910000Y-106330000D01*
D13*
%TO.C,R3*%
X85265000Y-116372936D02*
X85265000Y-116827064D01*
X86735000Y-116372936D02*
X86735000Y-116827064D01*
%TO.C,R2*%
X78765000Y-116772936D02*
X78765000Y-117227064D01*
X80235000Y-116772936D02*
X80235000Y-117227064D01*
%TO.C,R1*%
X61835000Y-120782936D02*
X61835000Y-121237064D01*
X60365000Y-120782936D02*
X60365000Y-121237064D01*
%TO.C,R17*%
X127935000Y-92072936D02*
X127935000Y-92527064D01*
X126465000Y-92072936D02*
X126465000Y-92527064D01*
%TO.C,R14*%
X134335000Y-104972936D02*
X134335000Y-105427064D01*
X132865000Y-104972936D02*
X132865000Y-105427064D01*
%TO.C,R19*%
X129172936Y-107665000D02*
X129627064Y-107665000D01*
X129172936Y-109135000D02*
X129627064Y-109135000D01*
%TO.C,R20*%
X130935000Y-87672936D02*
X130935000Y-88127064D01*
X129465000Y-87672936D02*
X129465000Y-88127064D01*
%TO.C,R15*%
X122527064Y-102435000D02*
X122072936Y-102435000D01*
X122527064Y-100965000D02*
X122072936Y-100965000D01*
%TO.C,R18*%
X129972936Y-95165000D02*
X130427064Y-95165000D01*
X129972936Y-96635000D02*
X130427064Y-96635000D01*
%TO.C,R16*%
X130627064Y-102335000D02*
X130172936Y-102335000D01*
X130627064Y-100865000D02*
X130172936Y-100865000D01*
%TO.C,R11*%
X118827064Y-99735000D02*
X118372936Y-99735000D01*
X118827064Y-98265000D02*
X118372936Y-98265000D01*
%TO.C,R13*%
X115535000Y-101572936D02*
X115535000Y-102027064D01*
X114065000Y-101572936D02*
X114065000Y-102027064D01*
%TO.C,R4*%
X56272936Y-71725000D02*
X56727064Y-71725000D01*
X56272936Y-73195000D02*
X56727064Y-73195000D01*
%TO.C,R8*%
X121865000Y-85227064D02*
X121865000Y-84772936D01*
X123335000Y-85227064D02*
X123335000Y-84772936D01*
%TO.C,R7*%
X120985000Y-88732936D02*
X120985000Y-89187064D01*
X119515000Y-88732936D02*
X119515000Y-89187064D01*
%TO.C,R5*%
X87472936Y-108550000D02*
X88927064Y-108550000D01*
X87472936Y-110370000D02*
X88927064Y-110370000D01*
%TO.C,Q2*%
X132060000Y-104402500D02*
X132060000Y-105922500D01*
X132010000Y-104402500D02*
X132060000Y-104402500D01*
X130110000Y-104402500D02*
X130890000Y-104402500D01*
X128940000Y-104402500D02*
X128990000Y-104402500D01*
X132060000Y-105922500D02*
X131060000Y-105922500D01*
X129940000Y-105922500D02*
X128940000Y-105922500D01*
X128940000Y-105922500D02*
X128940000Y-104402500D01*
X130880000Y-103862500D02*
X130550000Y-104102500D01*
X130550000Y-103622500D01*
X130880000Y-103862500D01*
G36*
X130880000Y-103862500D02*
G01*
X130550000Y-104102500D01*
X130550000Y-103622500D01*
X130880000Y-103862500D01*
G37*
%TO.C,Q3*%
X128640000Y-93197500D02*
X128640000Y-91677500D01*
X128690000Y-93197500D02*
X128640000Y-93197500D01*
X130590000Y-93197500D02*
X129810000Y-93197500D01*
X131760000Y-93197500D02*
X131710000Y-93197500D01*
X128640000Y-91677500D02*
X129640000Y-91677500D01*
X130760000Y-91677500D02*
X131760000Y-91677500D01*
X131760000Y-91677500D02*
X131760000Y-93197500D01*
X130150000Y-93977500D02*
X129820000Y-93737500D01*
X130150000Y-93497500D01*
X130150000Y-93977500D01*
G36*
X130150000Y-93977500D02*
G01*
X129820000Y-93737500D01*
X130150000Y-93497500D01*
X130150000Y-93977500D01*
G37*
%TO.C,Q1*%
X117502500Y-100140000D02*
X119022500Y-100140000D01*
X117502500Y-100190000D02*
X117502500Y-100140000D01*
X117502500Y-102090000D02*
X117502500Y-101310000D01*
X117502500Y-103260000D02*
X117502500Y-103210000D01*
X119022500Y-100140000D02*
X119022500Y-101140000D01*
X119022500Y-102260000D02*
X119022500Y-103260000D01*
X119022500Y-103260000D02*
X117502500Y-103260000D01*
X117202500Y-101650000D02*
X116722500Y-101650000D01*
X116962500Y-101320000D01*
X117202500Y-101650000D01*
G36*
X117202500Y-101650000D02*
G01*
X116722500Y-101650000D01*
X116962500Y-101320000D01*
X117202500Y-101650000D01*
G37*
%TO.C,D2*%
X62910000Y-95300000D02*
X62910000Y-93300000D01*
X62910000Y-95300000D02*
X58900000Y-95300000D01*
X62910000Y-93300000D02*
X58900000Y-93300000D01*
%TO.C,D1*%
X94710000Y-106575000D02*
X92790000Y-106575000D01*
X92790000Y-106575000D02*
X92790000Y-109435000D01*
X94710000Y-109435000D02*
X94710000Y-106575000D01*
%TO.C,C2*%
X91485000Y-96736248D02*
X91485000Y-97258752D01*
X90015000Y-96736248D02*
X90015000Y-97258752D01*
%TO.C,C5*%
X60898752Y-98535000D02*
X60376248Y-98535000D01*
X60898752Y-97065000D02*
X60376248Y-97065000D01*
%TO.C,J1*%
X54920000Y-77690000D02*
X54920000Y-98070000D01*
X54920000Y-77690000D02*
X57580000Y-77690000D01*
X54920000Y-98070000D02*
X57580000Y-98070000D01*
X56250000Y-75090000D02*
X57580000Y-75090000D01*
X57580000Y-75090000D02*
X57580000Y-76420000D01*
X57580000Y-77690000D02*
X57580000Y-98070000D01*
%TO.C,D3*%
X80310000Y-120302500D02*
X80590000Y-120302500D01*
X81610000Y-120388248D02*
X81610000Y-121772500D01*
X81610000Y-121772500D02*
X80960000Y-121772500D01*
X79940000Y-121772500D02*
X79290000Y-121772500D01*
X79290000Y-121772500D02*
X79290000Y-120302500D01*
X81810000Y-120237500D02*
X81620000Y-120097500D01*
X81810000Y-119957500D01*
X81810000Y-120237500D01*
G36*
X81810000Y-120237500D02*
G01*
X81620000Y-120097500D01*
X81810000Y-119957500D01*
X81810000Y-120237500D01*
G37*
%TD*%
M02*
